<mxfile host="app.diagrams.net" modified="2023-11-07T15:16:59.536Z" agent="Mozilla/5.0 (Windows NT 10.0; Win64; x64) AppleWebKit/537.36 (KHTML, like Gecko) Chrome/119.0.0.0 Safari/537.36" etag="d3dZ7PL9Y_EWr40cZc4a" version="22.0.8" type="device">
  <diagram name="PÃ¡gina-1" id="CoFINrSkXd32ILWAmRgk">
    <mxGraphModel dx="1123" dy="1222" grid="1" gridSize="10" guides="1" tooltips="1" connect="1" arrows="1" fold="1" page="1" pageScale="1" pageWidth="827" pageHeight="1169" math="0" shadow="0">
      <root>
        <mxCell id="0" />
        <mxCell id="1" parent="0" />
        <mxCell id="DPpqllBd6HNyTSGJXjOd-1" value="" style="shape=image;verticalLabelPosition=bottom;labelBackgroundColor=default;verticalAlign=top;aspect=fixed;imageAspect=0;image=data:image/png,iVBORw0KGgoAAAANSUhEUgAAArIAAABUCAYAAAB++9Q2AAAAAXNSR0IArs4c6QAAAARnQU1BAACxjwv8YQUAAAAJcEhZcwAADsMAAA7DAcdvqGQAAHouSURBVHhe7Z0HXBRX18YfdumgotFYUEAEFGNBsaDEgoqxYoslYu/GGiNq1FexxRJjjImJRGNLwBCNfmpEsAQEKSoGpAgSKVKkKE2KtN3z3dld+u5Sgiaa+f9e87JT7znnOefemb2zo0IM8PDw8PDw8PDw8LxhCGT/z8PDw8PDw8PDw/NGwQ9keXh4eHh4eHh43kj4gSwPDw8PDw8PD88bCT+QrTP5eBL8AAkFso88PP8ZaqN9Pj94eF4bBUkIeZgCsezjf5LcWIRFZ/23ffAPkRsbhuisf97zlQay+WEnsWSgMZpqaqCJgRVmHwpAJmujouVvAuJnd/Djhjn48MOpmDZ9Phz2n8TJXYfhkS/boI6I449hbr9+WHjqP148yhAham9/aLUciW/DC2XLeN5GaqN9Pj/kUJQM32NrMKrLRHyf8mq8UpTsi2NrRqHLxO8h7xRZdw9j8fR5+OTTJZixYD980vnovNlk48GZtbA1McHAbd74T143ihLg+dV89GnfGVOcIlEiW8zz6hEleOKr+X3QvvMUOEX+854vH8jm34Ljalc0nvE1zp4/ipXdUuC6ZiKWnD6PrfKWu74BHVXebWweOQuX9Vfh2K+u+OXoJtjkn8Hmzz2QLJJtU0cEBgtw0t8fR2e34m9nc4gT4X6rGItOn8bH72nIFv73EGcEIyi6nqJ6Q5CrfXEGgoOi2eWMlDc5P15NDAsQdfsWHgRcx42/XkD8Kn4jpiAKt289QMD1G/jrhRhVTyFO+AkLprnAcNMP+OrLw9jZ4zrmzD2O2Ldbrv8KXl1daILuUx0w0ZyqxfvfgRgZwUF4pSVR2A42yxZgcPN/qw/eXoTtbLBswWA0/5f86FVZX1MY8ACtt53DvkVjMWzULOz49RSWdHgOtxMX8Y6c5VfPe+GlbN9/KwU3j+F4bE/MmN8DepylOsYYtflnfDGpxd/oZLVhYNEd7TRlH//r5Meh6ayf8MUHf8enbzr5uHdwM36MetvvCVTXfv69g9j8Y1SFuyFvan68qhhqwmzINMyz64WmrypBNM0wZNo82PVqKicHixDw9S64tR6HKZ1U2WchDD6cBDPPXfjCs55fS/HUkldcFwS60NVRkX34l5F/Dwc3/4hXXhKFzdC0yX+35/knETZrin+L68uaoTFkJT6x1pF9Ymj3gmVnNWgaTsBqOcs1tDRZSfx3o6KuDtUX7vhq543yO7CCFhjx0RjoV2l8QXIYfD1vITAup8Y7zQVJIXhY4fu7vPgQRD5jn4tSEe7nh/C0ItmaciTHv3UbwU+yqx0/PyGU7S9CwdMQ3IlIL7u7xXZCmK8nbgXGIafiTuJsxNy9Be/7schMT0Zynmw567TSo+7A66YX7kZnVvmqJQ/xIZGQNjMcfn7hkNPMyuTFIyTyGWtvEVLD/eAXnsb+YoiTEXzdHVevusM7oRvsp5khPeg63K9ehYd/DDuTjIIkhEaksv1FyIoNhF9QfNm6orSH8PMJRlK1vrQAyWG+8LwViLhKRucjIZS1X1SApyF3EJFefqkvyoxBoI83AiJl7auAODsGd295435sJtKTk8vbpgBFOlAYY/Ez+B+cgen77iAu+BrcPcMkPpagKH75CQhlfhUVPEXInQiUmyJCZkwgfLwDEFktOGJkx9zFLe/7iM1MR3J50KsjzkFseAw7pwgZUQHwDohCZrU7I/U7V7n2xXjmfxAzpu/DnbhgXHP3RJjM8LJtxJmI9OF0clWilduPpNrPeewLD7bM3SeyfIqSKBMxgT6srZHVdalQ7/JpuBgq1lxd6gWHipoq1GR/K0ScjnCvUn95ICBWamh+3B2pv7zCoXhGgArUVOWcoehPXHSLQSPTTmgrq3mCpp1h3uYpPC7dq5YvlclDUshtePtHIK2Q1YDoOGSXVMj9iExmuxjJ8nKfQ5H+5VDXGijOiUV4DPO9KANRASz3ozLL9+FQmGOK6ouy/FK0T3001ZA1WgUqKtUHskXpUbjjdRNed6ORWekEdaghtWqL/BoifuaPgzOmY9+dOARfc4dnGNeHMIrSEXXHCze97iK6csPqXKdFmdG46+OHkKQCzg3VqDk/mW6Dpbp1946Q1CFxchCuu7Pc8/BHTFkD6tFvclTTbR5i/D3KaqEX80lhwj1JXl/1uIf4smMq0Ue9+lPFvqjNuKU6LObRd+HjFwL5rlecK68SxePpkljEJr2DEeMGodLNFUXL/4Vwg3MHGzXc2TMKPawX4JBXArhZnE1HTsBQbek2EKfAY+cirHHyQkjgWTgMMIX1eg+kyYmBOCsYv6wfDpMOA7HNu4D1O3dxYuVgmJgNx06X41gyYjSmzxyNHl3s8N2j0sqZgzv7x2P0Zl8UabyA+4p+6NTbBsNHT4TjeW+cWj0EJqa22Oa0D5MH9EP/PrNwIrUEKR47sWiNE7xCAnHWYQBMrdfDg2tUUSi+nbcSLvElKPzLGXP7f4hjcUzuosc4NcMK4w8E41lKAPaO7AhrRz/WFYuRfvcEVg42gdnwnXA5vgQjRk/HzNE90MXuO5Q1syKsQ717YiUGm5hh+E4XHF8yAqOnz8ToHl1g990jiATNYGSYAZcldpj/QxhLNgGa6rfAo2/tYbf6DOKLs/DAdQM+MDXBwK2uOLfFHh/NnodJ/czR9xM33Du9DHYfLsSyj6xhPmAzbsuyUZzigZ2L1sDJKwSBZx0wwNQa6z1S8OzeKaweYgJT221w2jcZA/r1R59ZJ5AqzsKdg7Mxeb0rQhOicGXdQHS2dcRNWfCKQr/FvJUuiC8pxF/Oc9H/w2PgXCUXBTpIeaY8xuKsp8ho/C6akBiFeVnIys5n/hDLj1/KM9w7tRpDTExhu80J+yYPQL/+fTDrBCtOWXdwcPZkrHcNRULUFawb2Bm2jjdlOixC6LfzsNIlHiWFf8F5bn98eCyuSifIIULCrW+woK8hOk//Bs6OtuhpZYth/TvDZMAW3MqSbVaPcxVV0T5rMJ5mNMa7TQjiwjxkZWUjN73KNgIdvKMVjaMLx2Lc53+iaRsdScHRbtkIgV/vx13hO9BhC7LuHMTsyevhGpqAqCvrMLCzLRxvpkmLriK9y6PBYpiLNEWaK6l9vagzzF+NXt7E1iljMP37WLz7rrTCajbXgP+uDbj4orHEX3UiPwIP44DmrSpM9WB+b65HSIqKRLZsUVXyw09iyeiZ2OsRzi5GvsZHlsboPO47RIhryH1JPVGgfzlOEqffq1sNTH6CW98sQF/Dzpj+jTMcbXvCynYY+nc2wYAtt5DFapeiHCuRW184nSnOL/k1KQ0lNdR+uXWhIWu0XER4fGoGrMYfQPCzFATsHYmO1o7wkwxualtDatkWhTVEjKynGWj8bhOQuBB5WVnIzi9h3dMpzLAajwPBz5ASsBcjO1rDUdqwutVp5q3QH2Zh+PwfEBQfiYubV8AposLGte7PBWhmZIgMlyWwY8cKY4cQNNVHi0ffwt5uNc7EF9czJoq0r4533hXBb88MjBm3BV5iHajpxMPl013wKmyGZtyXJXL14Yt8Vmvr05/Wtx4qJD8UP8wazvI+CPGRF7F5hRMqu15Rfr0GuDd7yeOl3zrqN+wAPSyWLZChaPm/ltyH5Lp2KBloqpCKoBGZjdtC//f4pWyliFLP2JPNej8qkH1O/NqG1NW60sZ78g0UpX5PwzUa0xTXPMnnkpj99L66Llkuv0DRhWxB1m80o6UGWe1+RCXc+oe7yUq3J219ID1e8YOt1FPDmFZ4cRuz48V/TTYa2tRt1TVKexFJXjdC6FnyGbK3WU9+0kaRKJFto65GXTfeozw/B+pisZ4CJCaIKM11Lx0OL6aSyM+pr5YFbQnizlNMQf/rTpoWW0jykbUkZv/7pK5rScsvRJO0mTOopYYV7X7EtVIOJTG0/3110rVcThekhtFvM1qShtVukuxS8hft6adJJqu9Jccj9l/ftR1Js89OesitF6XQd7YapN13A91K5hYUUvCWnqTW2IrWXUtkLWStDN1GlhoGtPQ6M1SUSmfsbWh9udH0tY06qXXdSPeKRRTP4qKh3Y1WXUujF5FedCMknTLcl5KZ2XL6QxoKYs4hh/fUqdVkZ0oWFZKfQxeyWB9AUlelkevew8RcJQflOqgpxpR2hD7Q0qcFbrK9UxXHr1gUz+xifum2iq6lvaBIrxsUkp5B7kvNyGz5H1RuigO9p96KJjsnk6iQ2dXFgtZLg85McaW9h8MlPqwOs3ttJ1JrbUNb3OLZpzx6eHQC6QvVqeeWYLZPVr3PVVX7zHA68oEW6S9wk/lN3jYlFLG3P2m3mUXnM6VLREnHaenaq5TDfchyp6VmZrS8PIgsbu+ReqvJ5JwsokIFeq9Ow8aQ27+65p5Rch3rRSkFbgtIX3MofftUJFuiiJd0+1Nz0ui4hnykIWA+/YlmTTlMcUp3LSC3BfqkOfRbqngKUdwBGsi012t7mNROjpJHLHfVSM16Hz0uW1iBnD9odZce5OBbGpNC8l/H2tTJgfw539WQ+0r1L11UibrWwGKm0bWd1Ki1zRZyi2ctyHtIRyfok1C9J20JZmeQl2PPkhXXF65uyNO80prElci6aarBazTLlZ/Ga1HjKa7SXC6JpM/7apHFliCJn4uD/kfdNWXnq1MNqaktNdQQ9jntyAekpb+ApKaXUOTnfUmr1NbiIPpfd01ZO+tSp9l5bjtQNyNWSzJKF1yjJYbq1MnBnx2prv15Cf21px9pmqwmb6mQqdB3LXXU7EM7JZ1Y3WNSk/ZFT07RxNbqZLL4Ivl8OZMWn3ki8ReHPH2U+ayu/anEFzPqXw+rkUe3HbqR0azzVO76JWSo3okcuKJQIVfE3MoqufKqkX99XxiCQ18mYO7hFTDnrhRKUbT834yOOaZ8cQPhQb9hy/h2SL28A5P6j8OhUO42ej68LrgjKcoNB3bvxu7de3E6zxaO2+egd4XZFBUR6OpAu8L9dKEO+yzQQbfhI2CszhbomMKkrQqyM6VfdZU8iUYCO1XpN0CqxsZoq5KMJ3HSGcbc8bQEjWA5dABaNOqIQUO7QtP7AtyTouB2gGvTbuw9nceudrdjDmuUattOME44gDHW9thxNgzCSevwcWdVCE2X4rTvL1hlmohbJ/fhmG86xIUvUSC5HBJCR0cbAp1uGD7CGNJmmrB2ZCOz+nfOUoQ60NEWQKfbcIyQGgZTk7ZQyc6U8zW1HJhNjXSFUDe2RK9W3Hea6jDtaAQNFQNYWuuDk48quyLWV3mBzCx2wHwvXHBPQpTbAYnNu/eeRp6tI7bP6c3OLICujhY7pCWGDmiBRh0HYWhXAdyPnUF8h+6wKL27rt0b0yeaI/2KC66kq6JtJ2MkHBgDa/sdOBsmxKR1H4O5Sg7KdVBTjKuS76U4fty8Nh0tARpZDsWAFo3QcdBQdBW449iZeHToboFyU6Zjonk6rrhcQbpqW3QyTsCBMdaw33EWYcJJWPdxZ4kPqyOAlpYGhC2sMd62HfO6NsznbMciC0KYjzdSM9zqfa6q2pdH9W2EMJu9GB8UXMQPvySwq3MRHp0JQKspQ6DL1ma5HcOZ+A7oXh5E9J4+EebpV+ByJV2h3qvTsDHk/Fhdc5rwrmO9qDuasFq+HINST+Ors9wDtSLE/3oJKuMmo11d78ZyaGqCewST1fryB2KoCIVcTdLUlhvP7CtH8HNOXwy3LI2JEI0b6cj7BlcuSvUvh7rWQAi0oKUhRAvr8bBtx4KpbY452xfBgsLg450Ksbwc0/RWXF8UaV5pTaq7phq8RldFaIqlp33xyypTJN46iX3HfJEuLsRL7gR1qiE1tCWrhhoiW1aOEKZLT8P3l1UwTbyFk/uOwTddjMKXBUzfdanTuXD//iQedxkMm6ayRRoGMGxdOk+w7v25cuoek5q0LzCYgW8OTMDL4/ZY9HgKdk0xYJVGijx9iEr1Udf+lPPF/zVgPcx1x/cnH6PLYBuUu94Q5a4vz5U9cnLlVVNdLuJ03Pz8EF4u/xZrzSqsVrT8X4woNgihumyg04J1Sp0mwPG3kZjhshij5zpj91ceWHmsF56lv4RaHzs4fNZbQVJXhZXzihWdjVArFXgVIYRsAddxcGj0GYMPWv+KG1f/wqau5hBHROKJ3lAsH8R144xqvYMYOc/S8VKtD+wcPkPvao3qiFPXVbBl7TbsmWaJQ5ZLcOTsQUwyFCI/6Bss+rIpJnyyDB/bXsbxU7JdGFXnUqkIhezUrHNT+NAhN/9K9qcEFQilhtX6CdEqnuEaUXmJQCD5zLVBnPMM6S/V0MfOAZ9VNxql34qXIUpDfFIexNqsU5YkOrdQFUaG+hAUZyHjBaHdnFO4rrIFa7ftwTTLQ7BccgRnD04Cc1VlxDnKdfBMeYwrU1P8qlnCTIlHUp4Y2kWFbO9SU4xgqC9AcVYGXlA7zDl1HSpb1mLbnmmwPGSJJUfO4uAkQ1Zqa4GqMTqbsnKSWIj81L9zLmZ0JUfIo/o2gpaTsHjyFkw4dhyhM21x/nFXzFrNVU8R0uKTkCfWRlF5EKUFWVCMrIwXoHZzFOq9Eg0aQynVTK3pHA2E0GgmVk/eh0kHjyBk0kT8/kcLTD1dv4cpBXrtYdQCiM3g5rPKEGcgIxt4x8JIzgNoIjyNjkOuaiuoVXNAbahJ/3Ko7mjlxygJlv1RjqpxZ0glXsjqU/Wus6b60lGO5g/0V75PTbW/GoKGrtFVEUCYH4RvFn2JphM+wbKPbXG59ASCutUQZW2psV6xkVBjblkFBMJ8BH2zCF82nYBPln0M28vHIW2ZoPZ1WpSAyL+yQK1V5efeK8jPusWkNtoXoM3waRjZ7hJ+8ryGoBdjMEyvdFV1fZyoqI/KauMaV3lJhf60zBe9G6YeihIi8VcWobWqfK9WzK8NzPAqLX3lVCljuQj8dgtuWGzF5sHNKqxUtPzfTUnsOZxwl000l6AJk2k7scxaiJxMNqAQNIF+Gx1EuTrBXToTX4Io5gouB9dm4nMtaDYOX3w/H429v8GOA1/i83Nq+PTqT1hgpGgIIkAT/TbQiXKFU8W2i2Jw5XIwXiaE4Enr2Th0MxLhlzeie6ITVuxwR7qHAyasT8HEQztgb9mirDjVugbWGSFU2UlIXO43CeLaD3QrImiijzY6UXB1cpc9FMEhQsyVy5AbCmEbmBrrsQuD+wgs+/kMMQoKiyBo0w092wIJIU/QevYh3IwMx+WN3ZHotAI73OX84mKD6kB5/OSbYgpjPTEi7geW/xKIuACFRazodeuJtkhAyJPWmH3oJiLDL2Nj90Q4rdgBeaaUwQpS+ZV1MfLZZf275l3Qrt0rOFeN6GDoktnoFH4SB7a5IGvgVLSXCFSINqbG0BNH4H55EFlzClEkaINu0iDK1Xu15ryOXH4d55DQCMNXLUb3R0exZ8dhBJrPxFDZdW+d0bCC7UA9JFecD5sXg9jURug/pJ+c5xxUoNe0CRsR3kNAjPy7Tspzv+76r07tjkFUoX3F+SgQvwvzLm3kDsyU1peX8jV/TaOONakG8l51jc7zgMOE9UiZeAg77C3RouIJ2CCwofK6xnpVLQB58HCYgPUpE3Fohz0sKzes9nVapRmaN1NFcXgg7lf6yXKCmNNiPfJTKBVyucYkiKsNVJVd8JZTC92Kk3F+51X0OHkSU18exccbriJDtmGD6qOBa5VKs+ZoplqM8MD7kueMyuB8xw5fKb/K0rL+uVJXKoxJc3H/4HxsT3gfo1sn4V5AAPx93HB8/SKsXTu3+vJ1C9gV32RMcbyu5EnafxjKxNVdDnCJLH+UT5Tsywp0S9hNs2WftDFsrj06JJ7AdJvpcDzqinMnd2Gegz90Tbg7RnIQi1i95hKn9KOIhYt9LlObdCAnSSyOrCv4bFMsRn+5E+uWr4bj3m2YaVF6CcZgxyIqRnGFSdPaw+bCvkMiTky3wXTHo3A9dxK75jnAX9cEwoSz2PP9PVYaNGE0ahMcpxlDS0MduTHRSMlNwKOYHBQm+eCyXxJK8jKRFOSP0BwxRKydnOjKmylpZZkd1WB2SncpTyPpLrKkFzaHfmtNJN+5iftpmYh2d8Ip7quQjCTEpmWzgYa0uFTq7DhbS/fnkByQ+ZNboD0Mc+07IPHEdNhMd8RR13M4uWseHPx1wYWCKyRUXFzh4QRdjFq+CN2yz+Pg0QhZkUjFDc8nsFqxDIM0WIE8uwff38tj1y9GGLXJEdOMtaChKe9aUbkOaoyxuiY0VF7gaVI60gJ88Fc/xfFT5/ZlthRXDLjuKCxf1A3Z5w/iaIQ068WpN+D5xAorlg2CBuuEzu75HlJTRmGT4zQYa2lArikyxKnRiHkh+zvld/we2gVLPh4Czb9zrira577e0tRQwYunSUhPC4DPA7ZTtW2kqHabj4UDM3DmnBhj7MrvLuqOWo5F3bJx/uBRSJsjRuoNTzyxWoFlgzRY/ytP75pyrvgbNoacKdU1V496IYMk51eSb1UQmi/A6jEinDsYBquZvSVfayqHXbhwCctOUPkUehi7cgFMH7jDQ9ahZf1xA3+2X4hPJzaTfK6MAO+OnIjBWnexZ/oSfOd+F/c9T+O0Z3L5cWvIfYGS+iXXDs7PdaiB0mMwnUTHQCpxMVJ+/x2hXZbg4yHc0FxOjimrL0IFmtdRXpPqpqlbCIho4BrN1onYyUvPJ86JQXRKLhIexSCnMAk+l/2QVJKHzKQg+D+IrEMNqaEtNdUQ9lldUwMqL54iKT0NAbcCEBGdgtyER4jJKUSSz2X4JZUgLzMJQf4Pal+nBS0wduYYNI87gU/XXUQcG1EVxv+JsBQRMhNikZxFdcxPIZrrt4Zm8h3cvJ+GzGh3OJ3yRbooA0mxachmF/91jYly3Zbg0bGtuNlrE5YM+BD7v/4IRSeXYe0l7pcIxMiR04cXl+lDGuda96dcrZrzN+phFQQtxmLmmOaIO/Ep1l2MY4PZQsT/GYYUUSYSYpORReW5MsS+eq68cljCM4rpwcFh9K5QhbOl0j9Vgw7UTFB1uQqp915DW0e3olajvpP/wMC/gII/ttC0WYvoo7EjyW7SVJo22Y6GDBxJy44H0wvZNtzDFREuK2mIaVPSUG9MBtaL6GRY6RT2KuQ+pMuOo0hfKKR2Y7fT74H36MKmYdRSqEZmU/eTW/gjun18FVnrCUjLYj45+SSS6OkvNNNIg1haSvymIlQn3eYd6P2FJyksOYhcN9pSa3a81sM2kPO952UTv19GuNDKIabUVEOdGhtY06KTYZKJ9YW+m2iAqQUNnb2WHHd8RosX76LrySJ2nou0um8ratTUmAYtPEKep+eSoV57GrX7NsWHXaBNw1qSUM2Mpu53o/BHt+n4KmvSE2iRxXwn8kmsGsAXFHZhEw1rKSQ1s6m03y2cHt0+Tqus9UigZUHznXyI2yUnYC+NbN+Emuj3oMn7PMnNwZJMB82hbc4+5Pd/22hMWyGpGk2gzy+GUFzQb7R9rAEJVY1owq7zFBwbROe2jaF2zHbDcbvoyqMCzmhyWTmETJtqkHpjA7JexHyUJ6KMIFfaaNuahMLWNGyDM917XuqlYoq7tJnGWfagwVMX0tL5s2jJfk9KkawuJN9NA8jUYijNXutIOz5bTIt3XSfmKgUo0MGLsBpjTCWx9NPMTtSsmRnZ7fOXaEtu/EQZFOS6kWxbC0nYehhtcL5H5abE0aXN48iyx2CaunApzZ+1hPZ7pkj1UOhLmwaYksXQ2bTWcQd9tngx7boufaiiOtKHBNTb9Kdpi5bTmjUraNaEabT58pPySfz1OVdV7Udwaiyh2J9mUqdmzcjMbh/5J8vbppzM8/Np5NY/JQ8mVKQ47hJtHmdJPQZPpYVL59OsJfvJUxpEhXqXT0PF0JeeKNRcHeqFhBJK9HWmPZNNSU34Lg1x+IGu/yV7EqQGCrw/IcuxTpSoyNxSShLJ13kPTTZVI+G7Q8jhh+tU+RS5FPjVBLKx30s/n9pJ9iNmkVOo7EkyuYjo6XVHsuvcgnSbGJHNml/p6tZepFn6sBdDce4HSjStqH5VRZRR9xoofVhIndr0n0aLlq+hNStm0YRpm+nyE6ZwZTkmt76w5cryS9E+9agLWQ1ao19S5JWtNLINs9NgHO38v1Bm+1O6uLovtWrUlIwHLaQjnqdprqEetR+1m26n1r6GvKhNW5TVEEZJ7E80s1MzamZmR/v8s+jpxdXUt1Ujamo8iBYe8aTTcw1Jr/0o2n07tW51WpRJdw/PISvDpqRn2IvsVu6ixdZGZDVtI/3o+5RtUMf8zAmgvSPbU5Mm+tRj8j7ydHMgS9NBNGebM926/Vu5H764UouYSKmm2xOhTLe5FHT0I+r8jiWtdONqMcsxz41k3VhAgubWtOIk02lidX0YNeX0cZ0CLtWjP/079VAOosy7dHiOFRk21SPDXna0ctdisjayomkbfyTfp8wXinLlNaDC/YcNTnleEeKnl7D9SA4mzukJ8fMMvMjNR05WMkJdj+PJHA98P/K/+zYsnldBCYK39EK/i2Phd38HejTERDGefwAxEn6Yi53NDsLpw9LHK/4eefFBCE7ShKmlOd6t010SER7utIKlsw08H+yD1eu4w6KMkmBs6dUPF8f64f6OHq9srjIPD8+bwZsy3fXNRJwM55Wr8cB4BLoZm8OijzUGDrHF6IlTMKJXb7xnzJdgnleHgm+/eP7NiPORnVPERp134HSjNWaMaZhBLIeOQQ9Y96vrIPbfDK9wHh4efiD7ihGgcQsN3FjVF0PsV2LT9l3Y5bgeS2cvwa+Gi7GoY7VZ8Tw8f5MSZGbmQJT9HBnS6Ws8bwwiPNwzBC3faYFWHZfhmf1qWP8r3jpTgufPsyHKzUJWhWmn/xglmcjMESH7eUYtHx7j4eF5m+GnFrxyCpAQ8Dsue4UiOV8VeoY9YGs3Et3Kntzk4Wko8hF13RkXvGOQWcK0ZjQIk+cOQ4e35g7c248o/gaO/PwAzWxnYUrv8ieX/zlESPL9GS4ekUgvVkVT46GYOm8wFP7oyqsmPwrXnS/AOyYTJap6MBo0GXOHdajFw3A8PDxvK/xAloeHh4eHh4eH542En1rAw8PDw8PDw8PzRvLvG8jmP0Hwg4TqP3j+1pKL2LBoZPHPLdSfN1AzubFhiOaD/vcpSELIQ+5Vrg1DQVIIHqbwceH5JylAUshD/FdkWOtaKMrEo5AY1mPy/Otp4LpcE693ICt+hjs/bsCcDz/E1GnTMd9hP06e3IXDHqUvLBAj/thc9Ou3EKfe+iwWIcHzK8zv0x6dpzgh8m89RJGPRzeOY8f8ERhg/T4GDh2LSR+Ox7gP5+OzI15IqPQqjreNN0szogRPfDW/D9p3ngKnvxd0FDy+ieM75mPEAGtYvz8QQ8dMwtQpkzBh4nQsWv8FnP2T3uKHYbLx4Mxa2JqYYOA2779/EZP9AGfW2sLEZCC2ef93LqPfVgo8FsNAuyMWXXp9nWlDkP3gDNbamsBk4Da87TKsfS0sQez1fZjRwxDd5p5GzL/hgUMeBTRwXa4t3BzZ10Mu+XxmSWbjDtGfmdyvHedS9JVtNFxfm8aeKH89AeU9oaDgeFL2c92liNKD6M9/69sYakUh+Tl0Io0KPzT+d8i7MJOaC5uR/W+c9wroye9ryLKRGumP+4Eiq/4K/dtEHTRTG161rgr9HKiTRidyaJCgX6TZLYXU5MMzlCNb9PJpAJ36ZCC1UmtCFot/pdhaxv6NyydRCn03TIMaT3GV+2P7dUWU8h0N02hMU1xf0694/9sRpVPQn4/LX6TxxlBI3p/0Jdsvg+tYE0SUHvTnP/yCHxGlfDeMNBpPof+CDGtfCwvIc3l70uy5lR68zX3Z20AD1+Xa8PruyBbcxLHjseg5Yz566HGn1YHxqM34+YtJaFGxFdoGsOjeTs47wKuSj3sHN+PHqDf58kyIZk2bNNhtcWHjRtDl3uwnebufBgxGb8fWD1sg5fed+PrWW3xbttaaqQ2vXlfCZk3RpKGCrqqHJizoKkJhmY40W/fFrANX8btjV8QeW4CZB8JQszVvYD4JdKGrI/cdm/VCoKuLBjzcG0/+vYPY/GNULbTzL0P0FBndHXF6dfe61YT8ezi4+Uf8sykggK6ujpxXML+d1L4WCqGtq/2f8csbTQPX5drQUN1pzaioQ131Bdy/2okbySLZQgFajPgIY/Qr/pZL1flBYmTH3MUt7/uIzUxHcjL3Pvdn8D84A9P33UFc8DW4e4ZB9hpxRgGSw3zheSsQcTkVv1Rixw2NQCpbJMqKRaBfEOLZoSQUpeGhnw+Ck0qnOMgoSkfUHS/c9LqL6MzK1U2cHYO7t7xxPzYT6cnJKD1UrRBlIvquD/xCklir5AS8IBlhvp64FRiHSibUGQ20N2oNgTgDaWkyn+cnIDTyGUQFTxFyJwLppaGACJkxgfDxDkBkmrwvpIvwLDIAXl538DizbCcZinwuJ3alKPFtQVIoIqSBQmygH4LKA4W0h37wCU5iw66KyJ9TVpAcBl/PWwiMy6n09WJefAgiOcEUpSLczw/hpfYq1VVN/qkJtn/0Xfj4hSCpQHatUQlFPqwv2rBcvQ0zDPPgf+gruJdOLJPn93rbrSS+dUaJvhRqhQ3gVeQVzKrHEiM5+Drcr16Fu3cEMplt4uQgXHe/iqse/ogpbTY7VvXDFSE96g68bnrhbnRm5UGdwlyShxjp4V6SNlxl/zwCYqU1Iz8OdzzYMncvhKfXJu71qGMMUWYMAn28ERCZxiyqTPVaJsYz/4OYMX0f7sQF45q7J8IkgshHQmgknokK8DTkDiJKDVaSy3XzUQWKniEywAtedx5DKodaxpBRlFWEVoZqiAyMRuXm5CE+hLWf7VuUGg4/v3CUp74/Ds6Yjn134hB8zR2eYc/YGaXUzXe1RbGuOE2XylCcHCy10d0bEVKjEXTdnWnIA/4VjK5zzcyLRwiLi5itTw33g194ddu4fiom0AfeAZFlfipDnI2Yu7fgfT8WmenJqFvq168Wlud6CdIi/BEQnoL88tUyFNVRxbGvHQq0z1DUz3AUPYtEgJcX7jzOZFYzWPyCJfFzh3dEJtue6TpIqmsP/5gy/YhzYhEew44nykBUANNelGz/iigaJyjIuaL0KNzxugmvu1XzQrFtNSHfdkV1+dXx+gayGkOw0sEGanf2YFQPayw4JJu72XQkJgzVZn+IkRX8C9YPN0GHsvlBRQj9dh5WusSjpPAvOM/tjw+PxbFCxa64G7+LJiRGYV4WsrLzJYVAnOKBnYvWwMkrBIFnHTDA1BrrPVKQ8cAVGz4whcnArXA9twX2H83GvEn9YN73E7jdO41ldh9i4bKPYG0+AJtvS6UkenwKM6zG40DwM6QE7MXIjtZw9JOWgqLQbzFvpQviSwrxl/Nc9P/wGOKq1G9F5If+gFnD5+OHoHhEXtyMFU4RFYqYGCkeO7FojRO8QgJx1mEATK3XwyOtanrUEjZAufdnDERaPdGvRy7unVqNISamsN3mhH2TB6Bf/z6YdSIV4qw7ODh7Mta7hiIh6grWDewMW8ebKD2t+Nkt7J49B/tuxCEt7DDGdeyF5RefSoQr3+dpbJ382HG2KvKtOOsBXDd8AFOTgdjqeg5b7D/C7HmT0M+8Lz5xu4fTy+zw4cJl+MjaHAM235Z0uNU1wxCnwGPnIqxx8kJI4Fk4DDCF9XoPpDy7ixMrB8PEbDh2uhzHkhGjMX3maPToYofvHonY+eXrCjX4p0byQ/HDrOGY/wMbdERexOYVToiooBfFPvybaFthmHUzUOptpqciJX6vj92K41tXlOlLWR7KQ/6xUqBnZIgMlyWwm/8DwlgjBU310eLRt7C3W40z8QoKt+gxTs2wwvgDwXiWEoC9IzvC2tGPdZ7pinNJtmt1BNBp9BI3t07BmOnfI/bdd6V3CzWbQ8N/FzZcfIHGOsrKMdN6PeoYCyLuHJyNyetdEZoQhSvrBqKzrSNuysQrt5YVZeFpRmO824QgLsxDVlYmkgNPYfUQE5jaboPTvskY0K8/+sw6gadRCuJTLx9xsEH0rd2YPWcfbsSlIezwOHTstRxMDmhWYwxFeHxqBqzGH0DwsxQE7B2JjtaO8GOjnfS7J7BysAnMhu+Ey/ElGDF6OmaO7oEudt/hkYj59mkGGr/bBCQuRF5WFrLzOSXXw3e1SQBFupKtroigmREMM1ywxI71GVKjod/iEb61t8PqM/GsL6xjzWRxuXtiJQabmGH4TmccXzICo6fPxOgeXWD33aOywVLWnYOYPXk9XEMTEHVlHQZ2toXjTVlNKgrFt/NXwiW+BIV/OWNu/w9xrPYdIH6Y/UH9a6E4FW7L+6Fn/2F4v6shzO0O4E6ObJWC/v+Z0thL91UM0849Tvum1bSfWiK/n5HIg/W9t3bPxpx9NxCXFobD4zqi1/KLeIpmMDLMgMsSO+YD7psyAZrqt8Cjb+1ht/oM4osScOubBehr2BnTv3GGo21PWNkOQ//OJhiw5RZTpLRNcscJKay/l5tzTxGlKC8ktlXP65Sa/KKgj611n9jQyKYYvCZy6aHrWhpqoEkqKgJqZDaOtvzf4wrzmESU+v3w8vlBhX7k0MWC1gdItxCludLew+EkmSKTdoQ+0NKnBW4FknUkSqUz9ja03q/0cyJ9baNOal030r1ibt6RLWlo96UNt5Ilc74Kg7dQT7XGZLXuGiVyBywOpW2WGmSw9DoVsC0iP+9LWhZbKEiyLoj+112TLLYEsXNz81q7kMX6AGm7RWnkuvcwhUsaVQN5t8mhmxHNOp9RuoCuLTEk9U7SObKi1DNkb7Oeyk34mmzU1ajrxntSm2ug4ObHZKSqQ/0+OU0XLjjTlwv7UPMmHWnq9w+kc1VE8cwnGqTdbRVdS3tBkV43KCQ9g9yXmpHZ8j/K5rPk+TnQe+qtaLJzMolEKXRmqgkN/zaORYdR8pC+tHmH2sw6T7nKfJ6nKHbKfMu2S/mObDW0qe+GW5QsDRRt6alGja3W0TVpoCh0myVpGCyl65LTVtEM9/mMPdms92NxlH5O/NqG1NW60sZ77Owx++l9dV2yXH6BorlpWVm/0YyWGmS1+5F0LmBVXVGWcv/Ilikmj247dCMj5q+yqF9bQobqsnlhSnUrXaSUwlu0soMq6U39tax95TCtru1IqoIWNPtirlK/19luZblZF5TpqwatcL79abxW+VysGo71155+pGmymrxl0/EKfddSR80+tPOhbFJk3k80Xqt8jmxJ5OfUV8uCtkhPTkH/606apW2Rm0s1q+Hl7U/JXKMjrfGRVT0W/59mTaHDcTXvyzauYx1jUXRfSmZmy+mP8iCSw3vq1GqyMyWLlNWyNDrygRbpL3Ary6N4lkca2t1o1bU0ehHpRTdC0uihsvjUw0eilDM01WQ4fSvzR8nDL8nmnTasZuZyn5THsCSSPu+rVXb+4qD/UXfN0viVUMz+90ld15KWX4hmmcGl/gxqqWFFux9J45925APS0l9ApSlQf98pp5qutliU64qR99N40qowR7bkrz3UT9OEVpcbTWs7alKfnQ8ldta5ZpbE0P731UnXcjldkBZB+m1GS9Kw2k0SV2S501IzM1pebjiz9T1SbzWZnJNFknmtXXusJ2nqiyjNdS8drl0HKKmF7Wf9Vo9aWEx3P+tCGm3G0IGA5yyauRR2fCoZq6lTTy7eSveVxl5DSeyVw2l/SBXtP6Nkhf1MIaWcmUomw78lqYxL6OGXNvROm1kklfFftKefJpms9pa0hQWMfFmd1uyzkySliNXWtZ3UqLXNFrryhB097yEdnaBPQvWetCW4WPk4oULOeaRmS3Mu7aGSvJCX1+lsqTKU97HiqnX5NfD67shK0IH5lC9wIzwIv20Zj3apl7FjUn+MOxQq+1pDAF2dCvNgVNuik3ECDoyxhv2OswgTTsK6jztDVba6EvleuOCehCi3A9i9ezd27z2NPHb1vH1Ob3ZWARo10oVQ3RiWvVpJ3pajbtoRRhoqMLC0hj53QFV25auvgheZWeyqVAjTpafh+8sqmCbewsl9x+CbLkbhywJ2LaSKtp2MkXBgDKztd+BsmBCT1n2MznIbVZlc9+9x8nEXDLYpfX+6BgwMW5e9vSff6wLck6LgdoC1n9mw93QebB23Y05vHdkWtUEd+p27Q79ZS3Sf8R3uxoXjlyXdwN3z5uau6GgxX1gOxYAWjdBx0FB0FbjjGLuy79DdQroNQ7v3dEw0T8cVlytIz3SDi7sGevZuLb19LzTHmj+eI+nUBOgo87nC2CnzLWtio0bQFarD2LIXWkkDhY5GGlAxsIS1NFDsilYfKi8ykSW5aqyiGeTD64I7kqLccIBr0+69OJ1nC8ftc8C5UaijA22BDroNHwFj7nVAOqYwaauC7Ew5X91wZLkp949smUJy3fH9ycfoMtgGZVE3METr8qAr0e3fhZCXmw8SNIGenppSv1ejJrvrkpvKUKavGrRSDaXHqjtC06U47fsLVpkm4tbJfTjmmw5x4UsUSIQqJ5ea1VxONa2WY/mgVJz+6qxkKowo/ldcUhmHye1qU4rrWsey4HbsDOI7dIdFeRAxfaI50q+44Ep6XWoZl2daLD8tMXRACzTqOAhDu7ZAR2XxqYePMt1c4K7RE71bS7cTmq/BH8+TcGpCLSIoNMXS0774ZZUpEm+dxL5jvkgXF+KlJGBC6LA6IdDphuEjjCVvAtMxNUFblWxklk1lqfh1aB19F1r7fqCarm4/L9dVPahzzRTqQEdbAJ1uthghLYIwNWkLlexMyTSOLLdjOBPfAd3LDUfv6RNhnn4FLlfSWbfcCcYJX2GMtT12nA2DcNI6fFy7DlBSC98bVP9aKGjF9Gf5DhdNvDf7C6weIECYjzeSc5XtW5vYK0Oe9jXhrbCfyYSbizs0evaGVMZCmK/5A8+TTqE2MoZAC1oaQrSwHg/bdhrM/eaYs30RLCgMPt6pyFU2TqiUc42lOdeio5K8kGdbM2n9VIjyPvb1TiqQUpvq2TCIYhEULJt3pNsJExx/w/3AnzCzQxZu7v4KHqVfCzMvlDlC0A5zTl2H00d68N0zDZYd+2HFb0/kDjjEOc+Q/lINnewc8Nlnn5X927BmPMy5HKt4XAlV58MJIOA+y150JhDmI+ibRVj8YyK6zvsYtm2FbFggWYN2c07hutNH0PPdg2mWHdFvxW94UmM+iJAQ+ReySAhVuTkvRs6zdLxU6wQ7h/L2f/bZBqwZb16HAYIKNN4xQ++BQzF0oCXa65VWCY7KHuAQpcUjKU+MoqLC8sGBpDMUoDgrA5lpaXhekIX0jOovgFPqc3XFsVPsW45qgao230YgDVT5PhV3EefgWfpLqHWyg0OFNn22YQ3Gc0KoMP9MgooQQraAXdTJFlSmJv+8qCHuooRI/JVFEMoPes26/TuwnLsXlAJqYon+3dRr8HtlarSbap+byhClK9YXR53aXMOx6oxAiPygb7Bo8Y9I7DoPH9u2hbDs0JVUVHuERpi5ejJ0rh7EkZB8hP/8B1pMtav8wKsyKmpdgpI6JkpDfFIexEVFKCwPomRQIyjOQsYLqlMtk2dxjblcJ0RIT3uOgqx01C+EAgjzg/DNosX4MbEr5n1si7blAatWR7gHJFW4OiLvXHX1Xa/a9gOMarpqV0FX9YHZVcXVymtmVc2oQCgtgmy9CGnxScgTF6Go3HCW+obQFxQjK+MFqN0cnLx2BB/p+WLPNEt07LcCv9XC8AavhYIWMDbSg0pJCYpr2LdOsZdD5b0ZyvoZs2ykPS9AVnqGzN9/H1XjzjBlg8RidsHzQuk4oVpLGTXkhez/a01Nfew/wOsbyJbE4twJ9woPkQCaJtOwc5k1hDnsSlHeQ/WiBIQ8aY3Zh24iMvwyNnZPhNOKHXAvHfRWQNBEH210ouDqVPEcIsRcuYzgOk3q5siDh8MErE+ZiEM77GHZonQwyAWfDUhDnqD17EO4GRmOyxu7I9FpBXbIa1QlVNCseTOoFocj8H5lY0nMTfkWoIl+G+hEucLJvfxBA4hicOVycPWJ+A2EsI0pjPXEiLgfiJeyZRAXoLBIgDbdesKwjQH0tVLh7uqODNlqsL88jrogSleJz18qip0y3zYAgibQb6ODKFcnuFcQmyjmCi7XXQg1+of120pRadYczVSLER54H5WiTizmrHkNq9vKZN74Gif+FKDz/BWw06ub32u0G7XPTWUIWyrWV6Sojm1Weiy2XpXtz/ldtkaKWGFnlufhgAnrUzDx0A7YW7aQ3AHl+LtKbTR8FRZ3f4Sje3bgcKA5Zg7Vla1pYIRtYGqsB3HEfQSWBxEFhUUQtOmGnm1Rz1pWSkPnshAtDfShleoOV/fyCCLDA0ddIllW1BDDPA+sm7gBKRMPYYe9Jf5Wc+rsO4ta+67OuhJy32ORpF5URFzbUVidEKKNqTH0xBG4X244S/1CFAnaoJvUcDxpPRuHbkYi/PJGdE90wood7qixByythfcbqha+xPPnL9HWwhL6TV9dHZWLsn4mtCkM9LWQ6u6KyjI+CheuEDEfS2VcLaCVNEBU4eKgOB8F4ndh3qUtmtV1nMDywmHC+obJC44G7mMbgtc3kGVey7y6Cw6sIJVNahclwzcgBi3tpsG2kXSRWMQVJVmhYgPZs3u+x708Nug1GoVNjtNgrKUBTe4SQl0TGiov8DQpHWkBPnhAwzDXvgMST0yHzXRHHHU9h5O75sHBXxcm6lLRiCsVQO5qTJpAUqQiEnEL2BVHTHQKchMeISanEEk+l+GXVIK8zCQE+T9Awtk9+F7aKIza5IhpxlrQkDRKGQK0GDsTY5rH4cSn63AxjqVyYTz+DEuBKDMBsclZoGFzYd8hESem22C641G4njuJXfMc4K9rIvk6pEZYkS2mYhRWuJKuDGczobi4wux63VFYvqgbss8fxNEIqQjFqTfg+cQKK5YNgkaTkZg7pR1SflqMCasO49fzzvhy6Uy4kBVMGynxuVBB7EiZb0O5QLGYVC7aXJvFFRZI6jfTSemSSpqBNobNtUeHxBOYbjMdjkddce7kLsxz8IcuE4JYJGLljR2vLImlcS87flVdqdTgH8kSxQhajMXMMc0Rd+JTrLsYxwp4IeL/DEOKKBMJscnIqkG3NULsiNVqhwgptz7HtHknkTd0N05utYamUk0zv9fVboW5mYd7h2ZhzFRHXE2uEERFKNOXSg1tZhEXSbQiO4+yYwmFaK7fGprJd3Dzfhoyo93hdMoX6aIMJMWmIZvrhcUiaY2QHE6MnJhopOQm4FFMDgqTfHDZLwkleZlICvJHaI6cXKotQnMsWD0GonMHEWY1E71rldxS6lTHoItRyxehW/Z5HDwaIe3kxKm44fkEViuWYZAGuyhXWMvUoamhghdPk5CeFgCfB3kSe6m4GGUW16QpSdvq5qMmI+diSrsU/LR4AlYd/hXnnb/E0pkuICtT1v0rj2HmsxhEp+Qi4VEMcgqT4HPZD0klechMCoJ/aDZELPe5+lKe+pLML/OduqYGVF48RVJ6GgJ8ojGoTr7bWst+QI6u/Cvqim3B1TMuzrI9hM310VozGXdu3kdaZjTcnU7BN12EjKRYpGUx4UriX4eayXQudUWZJ2SukK7XHbUci7pl4/zBo5CmvhipNzzxxGoFlg3SYN3yWez9/h67jNGE0ahNcJxmDC0NzRrv7JXWwicn1ta7FlJuJjK4XGUUhB3Hz4+H4X+fvA8NbWX7sjpRQ+xropr2lfYzLTBy7hS0S/kJiyeswre/nofzl0sx04VgZcpGkcLm0G+tieQ7N3E/LRPR7k445ZsOUUYSYtOyZRcEzOfRMXgh+zvl998R2mUJPh6iCW2l44TqOSfOUZYXOXJsqwnlfSzX3kp1+XXAjHg9FPxBW6bNokUfjaWRdpNo6rTJZDdkII1cdpyCZe9DyH14mRxH6ZNQ2I7Gbv+dIjJ9adMAU7IYOpvWOu6gzxYvpl3XZQ/YlMTSTzM7UbNmZmS3z58kh3gZQS4rh5BpUw1Sb2xA1otOUlged9xLtG1MWxKqGtGEzy9SSFwQ/bZ9LBkIVclowi46HxxLQee20Zh2QhIajqNdVyIo9uJq6tuqETU1HkQLj3jS6bmGpNd+FO2+nUq+mwaQqcVQmr3WkXZ8tpgW77pOycpnR8sQUebdwzTHypCa6hlSL7uVtGuxNRlZTaONP/rS0xLOBBdaOcSUmmqoU2MDa1p0MqwWE6bzKPLGcdpmZ0iqKkJqNcSBjlwOoYyKbRJlUJDrRrJtzWxsPYw2ON+j56Xri+Po0uZxZNljME1duJTmz1pC+z1Tyid85z0k5xVDyKxFI2qib0nT9nlRSulKBT7nHkiQHzsRPVXk2+sBdGnbGGoricvndDEkjoJ+205jDYSkajSBdp0PptigcyyW7ZhGDGncrisUFFxFMxJnvaQIl5U0xLQpaag3JgPrRXSSa9SLMLqwaRi1FKqR2dT95Bb+iG4fX0XWegLSsphPTj6J8nVVk39qQJR5lw7PsSLDpnpk2MuOVu5aTNZGVjRt44/kKw26fB/WwMu/btKJbXZkqKpCaq0taexHc2n+/Dk0zW4w9beZSg5OPvS07BkMJX6/nVl3uxXFV5REJya0ombvtiLr7aHcljWjUF/K2pxMkVe20sg2TM8G42jn/8nOpUyrOQG0d2R7atJEn3pM3keebg5kaTqI5mxzpsDEh3Rl60hqIxSSwbid9H+hWSR6epFW921FjZoa06CFR8jz9Fwy1GtPo3a5kbeiXKotBd70ieVYckqs/Y51r2OPqICKKe7SZhpn2YMGT11IS+fPoiX7PWU+KVRSy0oo9qeZ1KlZMzKz20Met11po21rlmetadgGZ7onMVhJfLxZW+rpo7yHzrRiiBm1aNSE9C2n0T6vCrmmLIZpiXRxtRW1atSUjActpCOep2muoR61H7WbrvldoE3DWpJQzYym7nej8Ee36fgqa9ITaJHFfCfySSxhKfATzezUjJqZ2dE+fy4D6us75VTV1R+lutp9m5Ijr9DWkW2Ynw1o3M7/IyZDRg4F7B1J7Zswf/SYTPs83cjB0pQGzdlGzj5+dayZZ+n3XzfRsJZCUjObSvvdwunR7eO0ylqPBFoWNJ/VDOYKlvqXaPM4S+oxeCotXDqfZi3ZT56yRCr03UQDzSxo6Oy15LjjM1q8eBddr10HKK2Fc/vVqxa+fPw7fT5rMPUeOI7mLFvF2rWdLj2WPTTJoWDfF2E1x14xIsoIYtofzsWkovY5FPQzEvLoofMKGmLWghoxrVpO20deZYWIk/FeGtm+CatRPWjyPk9yc7Ak00FzaJtzID0v5B6aVKc2/afRouVraM2KWTRh2ma6/KS8nXLHCVX7+J/vSnNO9JTlRV85ebGL3Lzl5XVtUGT7S/l1+RWjwv1HNqbl4eHhaRCKbm/Ex38uwLGVxrIlPBURJ/yAuTub4aDTh2UPvvDw8PCgJBhbevXDxbF+CNzeA2o13ermeZ1TC3h4eP4LiDMCcOzKO7CfaSRbwiNFjPzsHBQhD3ecbqD1jDH8IJaHh0cBr/Gr+TccfiDLw8PTcIgzERpUjFH/+xQ2TfnyUhHRwz0Y0vIdtGjVEcue2WO1dcO8VJmHh+ctoiQTmTkiZD/PeGUPeb9t8FMLeHh4eF4HonjcOPIzHjSzxawpvcufHubh4eHhyI/CdecL8I7JRImqHowGTcbcYR1q97D3fxh+IMvDw8PDw8PDw/NGwn/3x8PDw8PDw8PD80bCD2RfBaIsZGbLJmoXJCHkYcobNW1blPkIITG5sk8NST6eBD9Agux3AN98CpAU8lDyqlGe+iJGtuR1qv9RxNmIu38bfqHJyM9/guAHCTX+sHydyI1FWHTW36g/b1vOyiMXsWHRyGrAPM6NDUN0Qx6wIamDJhq+L/gv6OkfouK447Xw76nd/EC2gSmMOo8vPr+AyKJsPDizFrYmJhi4zbthO6dXRUksru+bgR6G3TD3dEwdfiC5dojjj2Fuv35YeKrqwL4AVxe2hY75ElxO/ZcW/ypkPziDtbYmMBm4Dd58Ua49BbFw/3IlFny8EZ9/8yvuce/mDzuDrbt+w2N5b/erLeJMhF86iHWL52PB4uVYvWYD9jj7IebBSZy4+e8MkCjuHDZ8vA+X/S5j60hTmA8Ygb5WC3GqIa6MRAnw/Go++rTvjClOkfXOZcU5+zYgQoLnV5jfpz06T3FCRPHfn2UnSvDEV/P7oH3nKXCKbOgK+jepogml5r6ivoDT07z+/d9SPf1Nsu7i8OLpmPfJp1gyYwH2+6TX2kfl4w7ZgtdEg9TuhoCbI8vTMJTEOtP8ydspIFe2QJRC3w3ToMZTXGvxUoN/CQWetLy9BvXc+oDKfku/wcijJ0HBFF/hN6wlsHOu7DOCDoZUXfFvRkQp3w0jjcZTyPWNCe4/i+jpVdowsDMN2+Fd7cfxMz3X09i5LhSn7LfJFSBKvkabbdpTl+nfkHdigWxpLkX/voWGttKiId88lS37FyFKI+cP9Wn00XTuA6X/sZNmzv+Czt+PpwbLgkI/WmeuSZ0c/KlQtqjuKMjZt4ZC8nPoRBqdHMivQCxb9vco9HOgThqdyMG/dl4XpQfRn4/rIfz6wDTh0ElDookazX0lfcHbrqd6Ioqn05PaU/9dYRJfl8R+S8ONx9LR6Jo9X23c8Zr5O7W7oeDvyDYUohgcXb4XNGMF+urIlgl0oavzhv2asVAbutqvqs3aMLDojnZVfnVIlJgJy12nsKLrm/RzRALo6urU+FpGHhl5Adg+wR4X3vsSv2wcgHeqVB69wesxV7wby4/F1u2rqpKHOGQ/FV+9nA/nE8sxQL/0pcE6MB69Db8em413XlR44fm/haK7uOmbB+1GnOYFaGazCaePrcWEnu3QYFkgbAa9Jn+3xMvP2bcHIZo1bdKgX00KmzVF7d2ej3tf/w8/Rr2mu7dME01r27hX0he87XqqH0UBX2OXW2uMm9IJquyz0OBDTDLzxK79nkwhSpA37njN1Lt2NyANmb+1oyAZYb6euBUYhxzJffM8xPh74OrVq+yfO7zCnqEw4R48uM8e9xBf4VZ5UXoU7njdhNfdaGRWyvsCJIVGgPtWWpQVi0C/IMTnyVYVpeGhnw+Ck6rLoSA5DL6etxAYl1P5Fn5ePEIin7FlRUgN94NfeFqNv+eWe2MfvgjuifFD9WRLOFSgolK1EBQhPeoOvG564W50Zu2+silKR9QdL9z0uovoSoaLkRMbjhjmSFFGFAK8AxCVWVlK+QmhiHwmQsHTENyJSC8XmigTMYE+8A6IRFol47g2y/4sSUOEfwDCU/KrfMVRgw1FzxAZ4AWvO49RpTkoSArBw6pfnTbrjs4akbgbWd3PefEhrP1s+6JUhPv5IbxyY+UjzkbM3Vvwvh+LzPRkJJdqQUIBksN84XkrEHFSAdaAYlu52FYv80V4FhkAL687eFzVeIVxVG5ndpSvNB8q/XPH7UdZsi3qoSll7WQqyYwJhA/TU2Q1f+chPiQS0qaGw88vvIp+5FGE4P0r8EX0YGzeOrzaIFZKU3ww0RJ/fvEFPCvFSzmZFz/H3ltiDF28EF3k/EZNsxGfYF7PiidUZlv96ojiXJJPEVffrvnjcVYJnj+8weqcHx7ncGuqzLmuRx3iEGVG466PH0KSCrh0robCuqeAqjlbq5yU1PlbuB38BFWn7SmsSdX6hlLEyI65i1ve9xGbmY7kSgmtLJ5KYDGLvusDv5Ak5nW5TlLQFkWwdkTfhY9fCOS5XW7fJX4G/4MzYL8vAHHB1+DuGSbJKwnKNKW0vsmnfpqoTV/AqKOvXpueFNZ6xXpSPMZQcJ4G6WuK8OdFN8Q0MkWntrLf5BM0RWfzNkj2uIx7SmQtf9whpehZJAK8vHDncWYFn0hRVAPqPl7gqF/tbkhe40BWjBSPnVi0xgleIYE46zAAptbr4ZGmjnfeFcFvzwyMGbcFXmIdqOnEw+XTXfAqbIZm3OUJc+fjUzNgNf4Agp+lIGDvSHS0doRfvhhZD1yx4QNTmAzcCtdzW2D/0WzMm9QP5n0/gdu901hm9yEWLvsI1uYDsPm2zMviFHjsXIQ1Tl4ICTwLhwGmsF7vgbSSdNw9sRKDTcwwfKcLji8ZgdHTZ2J0jy6w++5RNTGUk4Przv+Hp516o7eWbJE8RI9xaoYVxh8IxrOUAOwd2RHWjn5Kr7hEj09hhtV4HAh+hpSAvRjZ0RqOfvkQJdzCNwv6wrDzdHzj7AjbnlawHdYfnU0GYMutLIjT7+HU6iEwMbXFNqd9mDygH/r3mYUTrJfOunMQsyevh2toAqKurMPAzrZwvJlWSdDiVDcs79cT/Ye9j66G5rA7cIdZyVBqgxjPbu3G7Dn7cCMuDWGHx6Fjr+W4+FQMcVYwflk/HCYdBmJb2aTSLNw5OBuT17siNCEKV9YNRGdbR9xMY9un38WJlYNhYjYcO12OY8mI0Zg+czR6dLHDd48URwJFofh23kq4xJeg8C9nzO3/IY7FSSuSOMUDOxetgZNXCALPOmCAqTXWe1S2uxJ1jJf42S3snj0H+27EIS3sMMZ17IXlF59Kjq8ojjXbWYSIU7vx4/1kZGRlISvrOf48uhjjPvwMv6exolcPTSlrJxMHDs6ejPWuoUiIuoJ1AzvD1vEm0sRipN89gZWDTWA2fCdcji/BiNHTMXN0D3Sx+w7KQoL8mzh8LBhafbvgxXcfY9qY0Zi84hC8WZwromnZAx2TLuDnm7WthvnwvnQNaQJT9O7zjvxiJjTDiBHm0r852+bIt61edYRRm1yqChXlITsrD0VEKM7LZjHNQlqwC9YPN0EHbs51fuU69GOt61A+Qn+YheHzf0BQfCQubl4Bp4fFsnUMRXVPQWOr5mxtczLnzn5MGL0ZvkUaeOG+Av1YXbQZPhoTNhzGD3JrUomCvoFrWBFCv52HlS7xKCn8C85z++PDY3HSizW5Wr2h0J5S8kN/wKzh8/FDUDwiL27GCqeIChd/ivopJQfND8UPsz/A/B/YhU/kRWxe4YSIsgMq6rs4/z5FRuN30ZjEKMxjuZ2dL2mHUk0pqW/ykaOJ8sbVShPy+oIX0jV18lWpnkzroafxddIT6z/k1Xr3VNZiRXpSEidFfWnCgwbqa/IR8TAOaN4KrcqKmBDvNNcDJUUhMlu2qBoKxh3sAunW7tmYs+8G4tLCcHhcR/RafhGsG+YaJjfeKc/+3nihYu3+R37PVTbF4JUjSj1D9jbryU82hU2U+DXZqKtR1433JHNCRE9O0cTW6mSy+CL5fDmTFp95QmXT6Eoi6fO+WmSxJUiybXHQ/6i7pgVtCZLsSSnf2ZKGdl/acCuZuGkahcFbqKdaY7Jad40SJTuE0jZLDTJYep0K2PapZ+zJZr0f+5tDRIlf25C6WlfaeI9tXBJD+99XJ13L5XQhmpvjlEW/zWhJGla76ZGiOSCFvvSpmRq1mX9FdsxS8uin8Vplc2RLIj+nvlql7S6moP91J02LLST5KJcSivy8L2mVblMcRP/rrlnmh0K/tdRJrTXZbHGjeNbUvIdHaYK+kNR7bqFgtoEonvlYQ5u6rbpGaS8iyetGCKVnuNNSMzNa/kfpxM488nN4j9RbTSbnZObx4rv0WRd1ajPmAAU8ZwbnhtHxqcakpt5T0m5lNohSztBUk+H0bZw0ciUPvySbd9rQrPPSyTui1O9puEZjmiKbVJrlvpTMzJZTeVP8yOE9dWo12Zm4ppTE7Kf31XXJcvkFkobiN5rRUoOsdj+SxFke3Py0LhbrKUAyB0tEaa576XA417hUOmNvQ+vLBUhf26iTWteNxIVdHjXFK++n8aRVOkdWlEJnpprQ8G/jpLoteUhf2rxDbWadp9wa4qjczmIKu/w7RcjOmRuwlfo00qMBe4IkWquzppS2M4vcl5qR2fI/JHrlyGP+fE+9FU12Tmbbl1DM/vdJXdeSll+Ilsy7zPptBrXUsKLdCpOjVKca1HWBMwWnF1PBk0u0rKsWaXf/jG6Xnojj5SWa864adVzrV7s5naJ4OshiCI3hdCRNtkwhUts6Lr+pwLa61hFGVg25pIw8Z5qoq0dTfy3dl9Wl74eXz7muUIfOP+bOVnMdyrvtQN2MZtH5jNIF12ipkXQ+ZCF3fGV1TwFVc7bGnGR62m2lSz23Bku0TcUPaGtPDTJe4SWJqbya9CxZSd/AzensYkHrpQlNojRX2ns4nB1bvla7aJTGUwF5t8mhmxGrSWVOomtLDEldNke2pn6qOnl026EbtZ/1G5W7fQkZqsvmyCrtuxhpR2iEtj4tcJOdsAZNKaxvCpCniSWG6rI5sjVoQllf8GdRPXzFtmF6+kCzST30JJunWws9pRfLr/XqXK3n+hh5eqohTvLOk8x82yB9jSiODgxk63ttp7Cy3C6hR3v6sVhY0z5F86fljjtYHTszlUyGf0uxUgfSwy9t6J02TAO5yuNd0cbU7FqOF0qpULsbaKp5nXhtd2TzvS7AnV1duB3Yjd27d2Pv6Tx29bwdc3pLJ3YIDGbgmwMT8PK4PRY9noJdUwzK77AITbH0tC9+WWWKxFsnse+YL9LFhXhZwF0TCNCokS6E6saw7NWKXccA6qYdYaShAgNLa+hzd3RVjWCor4IXkp+KyIfXBXckRbnhAGvH7t17cTqPXWFsnwNJU4Q60NEWQKfbcIww5r6r1IGpSVuoZGdW+5q8jJIExKcAuo0by/vWpgyh6VKc9v0Fq0wTcevkPhzzTYe48CUkZshFCNOlp+H7yyqYJt7CyX3H4Ms95f2SXc2ytQItLWgIW8B6vC3asaZqm8/B9kUWoDAfeLMrKYGuDrQEjWA5dABaNOqIQUO7QuB+DGfiO6C7hbb0FNBG7+kTYZ5+BS5X0qWLmE9bWQ6F5TvMmzrvYfYXqzFAEAYf72SoKLEh080F7ho90bu1NHJC8zX443kSTk2QxZi1p3zKVRbcjp1BfIfuKG9Kb0yfaI70Ky64wpoi1GHbC3TQbfgISENhCpO2KsjOrP5VSSmqbTvBOOEAxljbY8fZMAgnrcPHnZkI8r1wwT0JUW4HJPrbvfc08mwdsX1ObxZh+dQpXplucHHXQM/eraW6FZpjzR/PkXRqAju+8jgqt1MV740ZjU6cjjNvYOO8fXgyeB9OrLUANxu0zppS1s4sNxw7E48O3S2YKqRo956OiebpuOJyBenMDh0dbQh0umH4CGPJ22Z0TE3QViUbmQqTg6VHUiJSqBUGfDQJ3ZupQsNgLHZssoN2+HEcu1HhFwUEetBrQnj6JF5yZ6pGBNrQ1hBAhYpQoDiJpMhsM+6myLa61hHukLXJpdoigC7zbVl6VKpDXKRrqkO5cP/+JB53GQybprJFGgYwaC37qrKmuqeAyjlbk1YZJU8QnVDEzbvhPjGfGcOYrU9+EoeX7KO8mqTpraRvUG2LTsYJODDGGvY7ziJMOAnrPu4MVYVazZDFUz657t/j5OMuGFzuJBgYtpbEm6Omfqoaue74/uRjvDfIBuVuN0SZ25X2XdWpSVMK65tc5GvCsE6aUNwX5NbVV4zXoadmBfJr/Tau1ivSUw1xkneedw0aqq/RhCaX4kTc/2QQigo5uzWhrWiestxxRybcXNyh0bM3pN2wEOZr/sDzpFOYoKM83pVsbFyX8QKjrrW7gSkbK75axMh5lo6Xap1g5/AZPvus9N8GrBlvLpnczDWlzfBpGNlOhBjPawiSfnchQwBhfhC+WbQYPyZ2xbyPbdFWWOEGNoti5VBXmNsjQQAB95lTiTgHz9JfQq2THRzK2sH+bViD8eZcS6ruqwKhkC3gRCZbUg0qQUlJLW6oC4TID/oGixb/iMSu8/CxbVtUNEMeAmE+gr5ZhMU/JqLrvI9h21ao5Na9Kow7m7JkKUZhIduqslMYIqTFJyFPXMSSpLyQqhoZQl9QjKyMF9LiUQVBC2MY6akwG9lahTaIkJ72HAVZ6chQ2EDWoNI2idIQn5QHcVERypuiCiNDfQiKs5Dxgp2LBaJyKISQhkKxBwTt5uDUdSd8pOeLPdMs0bHfCvz2RMTC/gzpL9XQyc6hgv4+w4Y14yEJuzzqEC9RehqeF2QhXYHxSuNYGzvFT3F25QI45U/GYaf56FDaF9VRU8raKUqLR1KeGEVFheVfG0kGbwIUZ2VAGpJKLWVNFbK2VyzA1RGoa0BdRQMa6uX7NnnfGl0FWUhOlkxYkaEGdVV2NLH8Tr46TdCrlxlURX8hNLTCgFgOtbGtojylKKkj9cwlpVQ6fx3rkCgBkX9lgYSqsnpahRrrniIqNYr9XYNWNfpgzAetEX3DHX9xPVpRBCKf6GHo2EHQ5dZX2pmjhr5B0A5zTl2H00d68N0zDZYd+2HFb09QpCCeBhXjWQ0REiL/QhYJoSrfSbXopyojSojEX1kEofwDMmrouypRs6ZIQX2TyyvQRFlfICqus6+k1E9Pj29craWeOLOU1Hp1+XoS1WKMUZUG62vYILC9UQsgOwOZZWEXIyMjG3jHCEZNFQzT5I07ROlIe16ArPSM6nWipnhXs7EuNa6utbtheU0DWQGa6LeBTpQrnNy5hxdkiGJw5XKw9AEGcTLO77yKHidPYurLo/h4w1VklG6Y5wGHCeuRMvEQdthblr+jXFE9UIagCfTb6CDK1QnuZTPruaZcweXgarOYa4dqS7RsroK83FylTcrzcMCE9SmYeGgH7C1blN0FULxPHjwcJmB9ykQc2mEPS7mGs46tQh0rzi+A+F1zdGlTum1FhGhjagw9cQTuB3LXs1LEBYUoErRBt55sECRbVomXz/H8ZVtYWLbGS4U2CNHSQB9aqe5wda/wlHiGB466RFYQvAxhG5ga60EccR/lTRGjgF2FCtp0Q8/SSe91RJQQgietZ+PQzUiEX96I7olOWLHDHUVN9NFGJwquTu7lD1SwVsVcuQxFYa9LvIQtDaCvlQp3V3eUW58Bj6MuiBTVJo7KKMHjY4ux4rwulh47iEncpbY4E2nPiuqsKWXt/KulKYz1xIi4Hyi52yFBXIDCInaR2a0nK+yyZXVEvbsluqilIC62fG6pgLsTI3wXRsaNZUsYlI9cduJ3Wr4rX4fVUEW32QsxqFEKLv/4m3QOWFWKouF+5QGTm8y2PxvKtnrm0qtCpRmaN1NFcXgg7lf6TUeCmOtcXkXdk0szjPvie8xv4o1vdhzAl5+fg9qnV/HTAiMF/qihb2CDsZAnrTH70E1Ehl/Gxu6JcFqxA9eb1UerKmjWvBlUi8MRWNlJkg5YXJt+qgoqzZqjmWoxwu/fR2W3s+NxB6hT31WzplClvlkkSeub3Mu4V6GJ0r6gpz6a1tFX9UOmp8a11RNnlpJa/1K+ntzT6z7GaLi+RgNWtgOhl1xxPmweYmJT0ai/Dfop+oUHeeMOYUt2MaeFVHdXuFe4WZHhcRQuUbp1jHcdalyda3fD8poGsoD2sLmw75CIE9NtMN3xKFzPncSueQ7w1zWBOuuoHx3bipu9NmHJgA+x/+uPUHRyGdZe4iZnM8flxCA6JRcJj2KQU5gEn8t+SCrJQ2ZSEPxDc6RFiCsc0lMxuDtEskIiQXoXQyRZoI1hc+3RIfEEpttMh+NRV5w7uQvzHPyha6LOTiaCiI26SFwuAsnFIXcO6cfqaHRHn+6ayEhiVy+yRVLE7JyyosH+zomJRkpuAh7F5KAwyQeX/ZJQkpeJpCB/MDOqw66gYqJTkJvwCDE5hUjyuQy/pBLkZSYhyD9Utk0qomNkt6/FKfj991B0WfIxhnDi5+7eUDGKK9zr1x21HIu6ZeP8waOIkGhXjNQbnnhitQLLBpX+dBEhNzNDVhwLEHb8Zzwe9j988r6aUhvi35+LKe1S8NPiCVh1+Fecd/4SS2e6gKxMpeJmvhWzNknjootRyxehW/Z5HDwaIbuYScUNzyewWrEMXFPELBAi1pbyUEjjKPWnfEQJZ7Hn+3ssDpowGrUJjtOMoaWhCRXtYZhr3wGJJ6bDZrojjrqew8ld8+Dgrwsu7NWpOV5ikVjWATKajMTcKe2Q8tNiTFh1GL+ed8aXS2fChaxgqqI8jjXZWRi8H/PWe6P9+hPYNVT2HWHWNVzyzKm7ppS1s8koLF/UDdnnD+KoVBwsJDfg+cQKK5YNYuWW6VmaHJL2SZAmhyym8hG0m4qPJzWBz/lLZU/kFzxgncB7czB/YKnmGC8TkfRcE10tu7LrezEybu7A1CmOuJ6u+OBCkyVw+nYqGrmtxocO5xBR4elgcVYQftrzG0q6deWEL7HtxfmvFdjGmcXsqHUdqW0uKUDE5WXlOx0SPZWev651SNACY2eOQfO4E/h03UXEsYFLYfyfCE8RITMhFslZpLzuKaJSznIfa8rJLFz5bBNiRu3HznXLsdpxL7bNtEDZM9VyapLSvoENZM/u+R73WGHVNBqFTY7TYKylAc1G8rXq9aRvWTyrI0CLsTMxpnkcTny6DhelTsKfYSkQZSYgNjkLpLSfqo6gxVjMHNMcT06sxbqLcWwwW4j4P8OQIspEQmwyMlKV911Q14QGqw9Pk9KRFuCD6EHKNVW1vm2d1kFa3yStqYICTYTVSRPy+4LV72vW0KcroJ56ih39Za31xBqmuNYL5etJPbeGOMk5T8P1NYDe2JVYYPoA7h6yi4KsP3Djz/ZYsGYiG8orQO64owlGzp2Cdik/YcnE1Tj863k4f7kUM10IVqaNlMdbjo21rnEVa7dK7Wp3g0KvkZcRLrRyiCk11VCnxgbWtOhkGOVRLgUd/Yg6v2NJK92eUAmJ6KnnRrJuLCBBc2tacfIeZRQ/pYur+1KrRk3JeNBCOuJ5muYa6lH7UbvpesAl2jamLQlVjWjC5xcpJC6Ifts+lgyEqmQ0YRedD46loHPbaEw7IQkNx9GuK4+ogF5ShMtKGmLalDTUG5OB9SI6GcZNZn5BYRc20bCWQlIzm0r73cLp0e3jtMpajwRaFjTfyYcS5c67FlHyiXHU3Gw1eXMz0CW8pMgrW2lkG3Zeg3G08/9CSfT0Iq3u24oaNTWmQQuPkOfpuWSo155G7b5NmbK9KsN8cXE19W3ViJoaD6KFRzzp9FxD0ms/inbfzpROSFdvQ/2nLaLla9bQilkTaNrmy/SEtVGUEUSuG22ptVBIrYdtIOd7z9nRpBTHXaLN4yypx+CptHDpfJq1ZD95ppSufUmPf/+cZg3uTQPHzaFlqxbS0u2X6LF0bnyNNuQ9dKYVQ8yoRaMmpG85jfZ5pUjPm/uQLjuOIn3WnnZjt9PvEZy/iynu0mYaZ9mDBk9l55k/i5bs9yRJU16E0YVNw6ilUI3Mpu4nt/BHdPv4KrLWE5CWxXxy8knkjlqNQt9NNMDUgobOXkuOOz6jxYt30fXSSekvI8hl5RAybapB6o0NyHrRSZKEXQHKbE2OvEJbR7YhodCAxu38PwrNYjvkPSTnFUPIrEUjaqJvSdP2eUltURbHa37K7fzjMv3PQosEepY0fe16Wr+e/Vu3muYMMqOpP+fVQ1MMhe1kFMfRpc3jyLLHYJq6cCnNn7WE9ntKY/gi7AJtGtaShGrs3PvdKOzRbTq+ypr0BFpkMd+JfOQnhwTRc0/aNrwXjdn6C7n/39e0dNJC+jG8/BEFjkLfT6nTO3Z0XBKvEopxGkOtWo2i72r8sXgRpfk70epxvcnM5D3qM3gETZg2mxY6fEveqaWGMSS2jZdrW+7D+tSRmnJJPiWxf9B3KwdQc4GA3rVZS0fO+lNU6GVyHKXP9NSOxm7/lS79Ul6HvrgSVrs6JMqku4fnkJVhU9Iz7EV2K3fRYmsjspq2kX705V4KoajuKaBqzgbeqzknRU/pl5lGpMnNN2Hdi4qKkNR1m1OH9xfScf87CmuS/L6BUehLmwaYksXQ2bTWcQd9tngx7boue5hLrlaVPOglQUSZdw/THCtDaqpnSL3sVtKuxdZkZDWNNv7oS0+ZXxW2RQGizLt0eG4/MmyqR4a97GjlrsVkbWRF0zb+SL6JCQr7LlbCOTHQT7PMqVkzM7Lb5896IOWaUlrf5PG3NKG8L+Cok69kempbDz1p1FFP8mp9KPfMsSI9sfMoipN3LNeXDq92nobsazhyA7+iCTb2tPfnU7TTfgTNcgqlfNk6+cgbd3Dk0UPnFTTUrAU1aqJPltP2kVdZTZIf76rjhZ/v1na8IKX+tbthUOH+IxnR8vw98n2wtt8n0DoegB2WimcINSQlwVvQq99FjPW7jx09Xs85eXjqjTgPSWHBiH7ZAl0szWQ/rVdKCYK39sOs3C8R8OXAsgd4eN4wxE9xafsR5Eycg57i58h4kYv8nCwkh7ri+JM58Ph+pIK7pTw8cviv6SkvHkHBSdA0tYT5uwrva5fzD4w7qvPP1+7XNrXgrUd7AP53aDjuf+OKhNd0N72M130+Hp76INCBfjdrDOxbdRDLJJx+GUcCh+Dr//GD2DcXMZKdV2L1A2N80NUY5hZ9YD1wCGxHT8SUEb3Q+z1jJQ8B8fBUpVxPI7r9R/SkY4Ae1v1qN4jl+CfHHTL+DbWbvyPboIgQf+lzfBNng3XL30eLV3yZUOC5Au99cBnDrzzE97Z898/zhpIdhNNfuaPJHAeMM+KHOm8uYqReXIbBM1xQ3HsMRvXriJbaYrxIjEVq09HY7DhF4RxBHp7q8HqqHa933FGJf0nt5geyr4DCJ3cQqtILvQxe3fN7+VHX4XzBGzGZJVDVM8KgyXMxrAOf1TxvGiIk3L8P8Xt9YMi/f/2toCAhAL9f9kJocj6rTYboYWuHkd3Kf1GDh6cu8HqqHa9j3FGZf0/t5geyPDw8PDw8PDw8byT8HFkeHh4eHh4eHp43En4gy8PDw8PDw8PD80bCD2R53gwKkhDyMIX/gYa/RT6eBD9AgvK3ub4R5MaGITqLV8PrpCApBA9L32jByH8SjAc1iOnvxImPMQ8PT214LQNZcepduB5YjUlD3seAcVtxs+zds1KKYrxwas9ijB40Fku/+AnecdVeaMrznyUbD86sha2JCQZu85b/KsbXgChqL/prtcTIb8Mrv4ryDUIcfwxz+/XDwlNv7gWBKMETX83vg/adp8ApsuLrfN5uCjwWw0C7IxZd+gdil/0AZ9bawsRkILZ5yzJQHI9jc/uh38JTZW9rq8jfidN/NcY8PDz147UMZAUt+2Dqmi/x5eyWiLmyC7Pmn0R0hfqkbjwYs1fbQb+4PaasnImBRrV76k6cEYygaH7Q+3bTBN2nOmCiufTVhf8MYiS630LxotM4/fF7b+wPcAsMFuCkvz+Ozm71xn4VI2xng2ULbND8LX1GVX5NK8I9jwfotPNXHLL7B2LXpDumOkyEeUWfCwyw4KQ//I/ORis5DZLGaXC94vR39uXh4fnv8RprohBte/WASat3kHN5Nabv8EOlV8ELmkCvlR50a/3LEfm4d3Azfozir9jfegS60NWR+zbx10Q+4prOwk9ffPB6f6OvwdGGgUV3tHvDf+ZK2EwPTd7oOChCQU0TPUVGd0ecXt0d/1ToBLq6qJqC2gYW6K5ETMJmTesdp7+zLw8Pz3+L11wqVPDO+C/w7dR3ELR7JpafS6rxazJRZgwCfbwREJmGItkyiJ/B/+AMTN93B3HB1+DuGYZnkgMVIT3qDrxueuFudCYqdQc50QgMTS4/hhzE2TG4e8sb92MzkZ6cjJzkYFx3v4qr7t6IyGQnECcj6Lo7rl71gH9MXuleyIkNR0yOGKKMKAR4ByAqs/pdYrl2yMiLD0EkZ0BRKsL9/BCeVr2VBclh8PW8hcC4nMo+K0hCaEQqWyZCVmwg/ILiUdqyorSH8PMJRlK+bEEZImTGBMKHtTWy2rnEyI65i1ve9xGbmY7k5NKjKSAvCSG3veEfkYZC1v7ouGyU1MpvUhTaVQkVqKjIGciKMhET6APvgEhUNyMbMXdvwft+LDLTk6HYjDzEh0RK9FOUGg4/v3DZscRIDr4O96tX4e6dgG7202CWHiS1y8Mf5WYUICk0Aqlsf1FWLAL9ghBfHgA89PNBcPUAKLY7PwGhkc8gKniKkDsRSC+VUoPYysml8jzHWmvv1m0EP8muFqP8hFC2vwgFT0NwJyKdKUtGQTLCfD1xKzAOLDXKUdLWovQo3PG6Ca+70cisdn3KNBt9Fz5+IUgq4BRRlb+paXE6wr04jbL4Mp0GxEq3yY+7Aw9OA17hSOfsKEpH1B0v3PS6i+jqjaxCAZLDfOF5KxBxlZzAuaFyrclTWNPYKbOK0MpQDZGBVf2iSLtVESMz0keiZc4+99uPkM0dO+cxfD24PPVBJJenDIUxYPlXLQXlzltXHqd/NMY8PDxvJa//mlfQBlOOOOOzns/hvHgmvgpRNOsxC3cOzsbk9a4ITYjClXUD0dnWETfTxBBnPUVG43fRhMQozMtCVnY+SkSPcWqGFcYfCMazlADsHdkR1o5+kA4hinBr8wfo13cmflDwHrei0G8xb6UL4ksK8ZfzXPT/8BjiGxvBMMMFS+zm44cwVnUFTaHf4hG+tbfD6jPxKEq4hW8W9IVh5+n4xtkRtj2tYDusPzqbDMCWW1myIyuxI/0uTqwcDBOz4djpchxLRozG9Jmj0aOLHb57JBsSiFPgsXMR1jh5ISTwLBwGmMJ6vQfSSrLwwHUDPjA1wcCtrji3xR4fzZ6HSf3M0fcTN9w7vQx2Hy7Eso+sYT5gM26X1vWsOzg4ezLWu4YiIeoK1g3sDFvHm2DNYRQh9Nt5WOkSj5LCv+A8tz8+PBZX+YKgjHyEn1yC0TP3wiM8Ej5ffwRL484Y910ExM2U+01imSK75IenGll3DmL25PVwDU1A1JV1GNjZFo4306SdalEovp23Ei7xJSj8yxlz+3+IY3FVrRAj/e4JrBxsArPhO+FyfAlGjJ6OmaN7oIvdd3gkEqCZkSEyXJbAbv4PkJqhjxaPvoW93WqciS9G1gNXbPjAFCYDt8L13BbYfzQb8yb1g3nfT+B27zSW2X2Ihcs+grX5AGwuDYACu1OL03Hv1GoMMTGF7TYn7Js8AP3698GsE6nIqMnW+TXZyk6bFYxf1g+HSQfpPMdaaQ85uLN/PEZv9kWRxgu4r+iHTr1tMHz0RDie98ap1UNgYmqLbU77MHlAP/TvMwsnUkuQ4rETi9Y4wSskEGcdBsDUej08uMAqjIsIj0/NgNX4Awh+loKAvSPR0doRfqXj//xQ/DBrOOb/wC4SIi9i8wonRFQ0sSE0LdBBo5c3sXXKGEz/Phbvviu906jZXAP+uzbg4ovG0Ig5hRlW43Eg+BlSAvZiZEdrOJY1sjLiFA/sXLQGTl4hCDzrgAGm1ljvIY2ZvFoT81xOTZP5pV81v9SkXWkbyhFA5x0tRB9diLHjPsefTdtAh6v82i3RKPBr7L8rxDs6pDwGFRFnIfiX9Rhu0qHyvHWlcfoXxJiHh+fthHshwuuiOGwnTVhxnQrY3yUxp2lyOzXS7Lycrj4XERX6kMOE/9HdYum2We5LycxsOf2RJ/1MeX7k8J46tZrsTMlsc0o7Qh9o6dMCN+5o7HiRn1NfLQvaEsQdoJiC/tedNC22kOQjIy/sHB08cpMSuX2rUUh+Dl3IYn0AveQ+itLIde9hCmf7lvy1h/ppmtBq70LJllToS2s7alKfnQ+phPvot5Y6qbUmmy1uFM82yXt4lCboC0m95xYKZvvXZEdJzH56X12XLJdfoGjuFFm/0YyWGmS1+xE7vohSz9iTzXo/ic9YwyjxaxtSV+tKG++xg4tS6DtbDdLuu4FuJUtaQ8FbepJaYytady2ReYF5InQbWWoY0NLr3BGyyH2pGZkt/4PKm+NA76m3osnOySQqZG3rYkHrAyReYG5wpb2HwyXHqUrOH6upSw8H8i09UKE/rTPXoE4O/qwVNfmtBruqkUc/jdeixlNcpe3OcqelZma0vNypLH7vkXqryeTMnFrIbOpisZ6kZogozXUvHeaCWY0Sitn/PqnrWtLyC9GSdmf9NpNaaljR7kecP0vorz39SNNkNZWbsZY6avahnQ+59SJK+c6WNLT70oZbyRI/FQZvoZ5qjclq3TVKlAaAtllqkMFSTvdK7L5bxD7G09c2LJ7dVtG1tBcU6XWDQmLdarS1a4/a2MrWpn5PwzUa0xRX6bE47Q3QUKQ9tv7hbrLS7UlbH0iPV/xgK/XUMKYVXlJniOK/JhsNbeq26hqlvYgkrxsh9Cz5DNnbrCc/qYEkSmTbqKtR1433JFqTG5eSSPq8rxZZbAmSajbof9RdszSX8+i2QzcymnWeMrjduCXXlpKheidy8Jc0usE0TSz7b39qThod15CPdHPms59o1pTDFCcqocjPrUirtKYUB9H/umuWtbkSolQ6Y29D68udQF8P0SC1rhvpXrHiWlO1ppX75U85fpGn3RkVtFudkoi91F+7Dc06nyldIEqi40vX0tUcbmX1GFiU1VNG3k80XqtcO5yN3w/XKM9JuXFaUh6nOse4wr51iLGYrVMeYx4enreNf2wWkrD9TBx1dkCXhCOYN+84HhfLVkjIgtuxM4jv0B0W2rJF2r0xfaI50q+44Eq6dFFFhKZLcdr3F6wyTcStk/twzDcd4sKXKJBcsbPd35uEVYuHQF+uxapo28kYCQfGwNp+B86GCTFp3cfoXItXBwu0tKAhbAHr8bZop87OYz4H2xdZgMJ84J2aUaMdQh0daAt00G34CBhzb5jVMYVJWxVkZ2ZChHx4XXBHUpQbDuzejd279+J0ni0ct89Bbx22raARGukKoW5siV6tuMnF6jDtaAQNFQNYWuszq5hlRobQV3mBzCwRc6sbjp2JR4fuFihvznRMNE/HFZcrSFdti07GCTgwxhr2O84iTDgJ6z7uLDlOZbJx5cjPyOk7HJalBxI2RqMqk+jkzQaQUoNdNZDldgxn4juge7lT0Xv6RJinX4HLlXQI23aCccIBjLG2x46zYRBOWoeP5QZTCB0dbQh0umH4CGPmPc79HdBWJRuZcqaHVEeARo10IVQ3hmWvVhI/qZt2hJGGCgwsraEvDQAM9VXwIjNLeTx1mbMEutDRYse0HIoBLRqh46ChaOd/XKmtqhJbv6qFrdzhmdYqxES59oCSJ9FIKCqPo6qxMfNNMp7EvZR85o6nxTRoOXQAWjTqiEFDu0LT+wLck6LgdoCzbzf2ns6DreN2zGGBlba1NC6h5W0VmmLpaV/8ssoUibdOYt8xX6SLC/GSS95cd3x/8jG6DLZBU8lZAQ0DA7QunUtfR02HKtQ0hyasli/HoNTT+Oos95W5CPG/XoLKuMloJxDCdOkp+P6yCqaJt3By3zH4potR+LJAeme8IvleuOCehCi3AxIf7N57GnnDtmL7nN5gXqh9rSnzi1l1v8jVrolS7QrNZmPxBwW4+MMv4L6YEj06g4BWUzBEl1tZPQbPRaXnkgOn1Ypikhsnw/I41TnGFfatQ4xnKK1bPDw8byP/2ECWo8mAbfjl67EQuH2Cj7bfK5vbCVEa4pPyIC4qQmFZHVWFkaE+BMVZyHghp1CzjiY/6BssWvwjErvOw8e2bSGs9UOvArSbcwrXnT6Cnu8eTLPsiH4rfsOT2oxlqqEK486mrMMqRmF+as12cHPPZGskqAghZAvYRQYgzsGz9JdQ62QHh88+w2el/zaswXhzaZmusnf14wkEks/c4URp8UjKE6OoqLC885UMtAQozsrAC2qHOaeuw+kjPfjumQbLjv2w4lycZFBTCdFTRMflQlVdrerZa0ct7FKMCGnxScgTF6Go3KnSAbugGFkZL0Dt5uDUdSd8pOeLPdMs0bHfCvymIJhV596qCIXMJpL4q1aw3ascgQtBBQQQcJ9rFc/KR6qtrSevHamVrdUaq0x7DI0+Y/BB68e4cfUvyde0RRGReKI3FGMHcSMfRtXmMlXlPEvHS7VOsHOoYN9nG7BmvDnUK8WlV4W2CiDMD8I3ixbjx8SumPexLdrKkleUEIm/sghCVfm6qKume3Ga/u1JdU3LEBrNxOrJOrh68AhC8sPx8x8tMNWuhaRQCoT5CPpmERb/mIiu8z6GbVuh3F/SEOc8Q/pLNXSyc6jgg8+wYc14mKvWpdZI/fKtHL9w1Fm7gpaYtHgy9G4dw/HQPNz55TG62veUDILlxaCdqqIDSamonpri9DpjLKlbSmLMw8PzdvGPDmRZNUKHuT/i509MEXFgI36Kl5UeYRuYGutBHHEfgdKbPwwxCgqLIGjTDT1ZB1KVPA8HTFifgomHdsDesgVKt1BeiksRISHkCVrPPoSbkeG4vLE7Ep1WYId7AWuLKjsWQVw+jpAgrtRbsM6jQtUszi+A+F1zdGnXrs52VELQBPptdBDl6gT30ic/GKKYK7gcLPepDqUI25jCWE+MiPuBKG9OAQqLBGjTrSfaIgEhT1pj9qGbiAy/jI3dE+G0cic4N1RCRQ9NmwCJ9wIQo3BEoMRvf8suIdqYGkNPHIH75U5lZhSiSNAG3Xq2BQsmnrSejUM3IxF+eSO6JzphxQ73ev0GrVCVxYjE5R2oBHHtB7oVqbPdr9fWajQbhy++n4/G3t9gx4Ev8fk5NXx69ScsUPjzeAI00W8DnShXOLk/K/eZKAZXLgfjpaK25nnAYcJ6pEw8hB32lmhRIXlVmjVHM9VihAfer/z7vVxM2AnqrGmLJDit2FFd02U0wvBVi9H90VHs2XEYgeYzMVQybs+Dx7qJWJ8yEYd22MOyYiOrIGiijzY6UXB1ci97YIurMTFXLiO4SEmtqYrML8kTvq7ml/qiM3QJZncKx8kD2+CSNRBT28sOqiQGtaGmOCk7foPHmKtbSmPMw8PzNvF6B7JFRchjnXDl2tgUgz8/gwMjm6KwsHSNLkYtX4Ru2edx8GiE9Cl/cSpueD6B1YplGMT9kKe6JjRUXuBpUjrSAm4hICIaKbkJeBSTg8IkH1z2S0JJXiaSgvwRmiPCk3NrMMH+K9yR+zAr61zO7sH399hKTSOM2uSIacZa0NBUgbC5PlprJuPOzftIy4yGu9Mp+KaLkJEUi7RsWaVkbYuOeSH7OwW//x6KLks+xhDNmu0Qi0Ts7GzAV+YU6e+liiXVXxvD5tqjQ+IJTLeZDsejrjh3chfmOfhD14S7j8INFNmgSrKtDDbC4j6XLWGfVVRknYnuKCxf1A3Z5w/iaIR04CROvQHPJ1ZYsWwQNEQJOLvne0jdMAqbHKehg7YGmBsqI3gXIycOhtbdPZi+5Du4370Pz9On4Zlc3g6p31IU+E1Qg11VEUPEHCT1CWfGcizqlo3zB49CaoYYqTc88cRqBZYxp4oTzmHP99wdfk0YjdoEx2nG0NLQrH4DkTsu8z/XYZa7X+J9qb/YQLK5fmtoJt/BzftpyIx2h9MpX6SLMpAUmwYu/BJfVxrocnfESvfnkMZTJFmgJJ4d1KTbsvMXF5c/plKTraKEs9hbK1sZYpHkQqK0bcq1x8i6gs82xWL0lzuxbvlqOO7dhpkWetJ1HJzWqBgVmgvtYXNh3yERJ6bbYLrjUbieO4ld8xzgr2sCIWurvLhQTgyiU3KR8CgGOYVJ8Lnsh6SSPGQmBeFOig1mjmmOuBOfYt3FODbQKUT8n+FIEWUiITYZWSp11PTWaTDWkqPpCgjNF2D1GBHOHQyD1cze0juW4hzERKcgN+ERYnIKkeRzGX5JJcjLTEKQf6hkvzK0h2GufQcknpgOm+mOOOp6Did3zYODvy5M1BXXmso1zQdBqTK/RFX3i39odg3aVYBqN8xfOBAZZ85BPMau7OfkxPJiUFx6rhy2AaediseW5mRp7RG0GFspTmyYyeIUVhanjFJbahHjqvvWOcasbpXGWJxxEzumToHjdTnz0Xh4eN4OuImyr54Sivd1of0z3yMdg9G05cfr9Kh01r4MUfp1Wjt9O5U/61NMcZc20zjLHjR46kJaOn8WLdnvSSmlD2uVxNJPMztRs2ZmZLfPn7KeXqTVfVtRo6bGNGjhEfI8PZcM9drTqN23KZMd6972vvSOwUxyTZP3tFch+W4aQKYWQ2n2Wkfa8dliWrzruvShMsqhgL0jqX2TJqTfYzLt83QjB0tTGjRnGzkHPpc+tKDehvpPW0TL16yhFbMm0LTNl+lJ2fMWSux4EUYXNg2jlkI1Mpu6n9zCH9Ht46vIWk9AWhbzycknkW30kiJcVtIQ06akod6YDKwX0ckwznm59PDSNhrTVkiqRhPo84shFBf0G20fa0BCVSOasOs8BccG0bltY8hAKCTDcbvoyqMC1pw4urR5HFn2GExTFy6l+bOW0H7PFJKYWuhLmwaYksXQ2bTWcQd9tngx7br+VLquKqKndN3Rjjq30KUmRja05tertLWXZtnDXlK/jVLoN8V2VeUlRV7ZSiPbCEloMI52/l+oZGlx3CXaPM6SegyeSguXzqdZS/aTp0wchb6baYCpBQ2dvZYcd3xGixfvouvSYFbiRdgF2jSsJQnVzGjqfjcKf3Sbjq96n/QEWmQx34l8ElkQcwJo78j21KSJPvWYvI883RzI0nQQzdnmTD5+/0fbxrSV+vvzi/QgLoh+2z6W+VuVjCbsovPBsRR0jsWoHWu74TjadeURFSiyW5RBQa4bybY127b1MNrgfI+4ZyA5lNu6iQaa1Wwr5T6ky46jSJ9pod3Y7fR74D2J9lop0Z7o6S8000iD2HiAjZBUSEWoTrrNO9D7C09SWHIQuW4cTq3Z8VoP20DO956X6eRlhAutHGJKTTXUqbGBNS06GSZ5SIdrq9y4MC1dXN2XWjVqSsaDFtIRz9M011CP2o/aTbcz2erMu3R4jhUZNtUjw152tHLXYrI2sqJpG38k36csRnXWdLJ8TVegwPsTshzrVOHhUBE9vbia+rZqRE2NB9HCI550eq4h6bUfRbu5RlblZQS5rBxCpk01SL2xAVkvOkFSeSupNVVq2guZX1rL8cs1P3nata6sXUVknqf5I7fSnxWfhpIXA6Om0hgkR9KVrSOpDYu1wbid9H+hSfTwsiON0mdabTeWtv8eIT2EsjglJvwjMS6JcaIxrVrRqO8ec1vy8PC8hahw/5GNaXnqQUnwFvTqdxFj/e5jR4+a5ne+xYgeYqeVJZxtPPFgn5Vs3h3Pm4z46SVsP5KDiXN6Qvw8Ay9y85GTlYxQ1+N4MscD343UkH/n941HjIQf5mJns4Nw+rD08SMeHh4enn8j//Ac2bcIZV/n8fC8aYiT4bxyNR4Yj0A3Y3NY9LHGwCG2GD1xCkb06o33jFXfvkGsOB/ZOUVA3h043WiNGWP4QSwPDw/Pvx1+IPs3KcnMRI4oG88zpHO3/rOUPMfzbBFys7L4HyJ/KxCgcQsN3FjVF0PsV2LT9l3Y5bgeS2cvwa+Gi7GoY+nTOm8LIjzcMwQt32mBVh2X4Zn9ali/4a/y5eHh4fkvwE8t+BvkR12H8wVvxGSWQFXPCIMmz8WwDv/BL9VFSfD92QUekekoVm0K46FTsXCwkWwlz5tLARICfsdlr1Ak56tCz7AHbO1GolvZI+dvF6L4Gzjy8wM0s52FKb3Lf/mEh4eHh+ffCz+Q5eHh4eHh4eHheSPhpxbw8PDw8PDw8PC8kfADWR4eHh4eHh4enjcSfiDLw8PDw8PDw8PzRsIPZHl4eHh4eHh4eN5I+IEsDw8PDw8PDw/PGwk/kOXh4eHh4eHh4Xkj4QeyPDw8PDw8PDw8byT8QJaHh4eHh4eHh+cNBPh/Yc9UNLulTNkAAAAASUVORK5CYII=;" parent="1" vertex="1">
          <mxGeometry x="126" y="10" width="575" height="70" as="geometry" />
        </mxCell>
        <mxCell id="DPpqllBd6HNyTSGJXjOd-2" value="cont 0" style="rounded=1;whiteSpace=wrap;html=1;" parent="1" vertex="1">
          <mxGeometry x="358.5" y="75" width="81.5" height="20" as="geometry" />
        </mxCell>
        <mxCell id="DPpqllBd6HNyTSGJXjOd-4" value="alm cont" style="rounded=1;whiteSpace=wrap;html=1;" parent="1" vertex="1">
          <mxGeometry x="358.5" y="97" width="81.5" height="20" as="geometry" />
        </mxCell>
        <mxCell id="DPpqllBd6HNyTSGJXjOd-5" value="car 6" style="rounded=1;whiteSpace=wrap;html=1;" parent="1" vertex="1">
          <mxGeometry x="358.5" y="160" width="81.5" height="20" as="geometry" />
        </mxCell>
        <mxCell id="DPpqllBd6HNyTSGJXjOd-6" value="alm aprob6" style="rounded=1;whiteSpace=wrap;html=1;" parent="1" vertex="1">
          <mxGeometry x="359" y="180" width="81.5" height="20" as="geometry" />
        </mxCell>
        <mxCell id="DPpqllBd6HNyTSGJXjOd-10" value="lea 3000" style="shape=trapezoid;perimeter=trapezoidPerimeter;whiteSpace=wrap;html=1;fixedSize=1;direction=west;" parent="1" vertex="1">
          <mxGeometry x="338.75" y="246" width="121" height="20" as="geometry" />
        </mxCell>
        <mxCell id="DPpqllBd6HNyTSGJXjOd-12" value="cont 1" style="rounded=1;whiteSpace=wrap;html=1;" parent="1" vertex="1">
          <mxGeometry x="358.5" y="119" width="81.5" height="20" as="geometry" />
        </mxCell>
        <mxCell id="DPpqllBd6HNyTSGJXjOd-13" value="alm uno" style="rounded=1;whiteSpace=wrap;html=1;" parent="1" vertex="1">
          <mxGeometry x="358.5" y="139" width="81.5" height="20" as="geometry" />
        </mxCell>
        <mxCell id="DPpqllBd6HNyTSGJXjOd-19" style="edgeStyle=orthogonalEdgeStyle;rounded=0;orthogonalLoop=1;jettySize=auto;html=1;exitX=1;exitY=0.5;exitDx=0;exitDy=0;entryX=0.5;entryY=0;entryDx=0;entryDy=0;" parent="1" source="DPpqllBd6HNyTSGJXjOd-14" target="DPpqllBd6HNyTSGJXjOd-15" edge="1">
          <mxGeometry relative="1" as="geometry" />
        </mxCell>
        <mxCell id="DPpqllBd6HNyTSGJXjOd-14" value="JZ" style="rhombus;whiteSpace=wrap;html=1;" parent="1" vertex="1">
          <mxGeometry x="359" y="291" width="71.5" height="50" as="geometry" />
        </mxCell>
        <mxCell id="DPpqllBd6HNyTSGJXjOd-15" value="car cont" style="rounded=1;whiteSpace=wrap;html=1;" parent="1" vertex="1">
          <mxGeometry x="458.5" y="353" width="81.5" height="20" as="geometry" />
        </mxCell>
        <mxCell id="DPpqllBd6HNyTSGJXjOd-17" value="esa 6000" style="shape=trapezoid;perimeter=trapezoidPerimeter;whiteSpace=wrap;html=1;fixedSize=1;" parent="1" vertex="1">
          <mxGeometry x="439.75" y="381" width="119" height="20" as="geometry" />
        </mxCell>
        <mxCell id="DPpqllBd6HNyTSGJXjOd-18" value="PAR" style="ellipse;whiteSpace=wrap;html=1;" parent="1" vertex="1">
          <mxGeometry x="466.38" y="403" width="65.75" height="40" as="geometry" />
        </mxCell>
        <mxCell id="DPpqllBd6HNyTSGJXjOd-20" value="JN" style="rhombus;whiteSpace=wrap;html=1;" parent="1" vertex="1">
          <mxGeometry x="358.25" y="563" width="71.75" height="50" as="geometry" />
        </mxCell>
        <mxCell id="DPpqllBd6HNyTSGJXjOd-22" value="mul uno" style="rounded=1;whiteSpace=wrap;html=1;" parent="1" vertex="1">
          <mxGeometry x="357.75" y="271" width="81.5" height="20" as="geometry" />
        </mxCell>
        <mxCell id="DPpqllBd6HNyTSGJXjOd-23" value="" style="endArrow=none;html=1;rounded=0;entryX=0.5;entryY=1;entryDx=0;entryDy=0;" parent="1" target="DPpqllBd6HNyTSGJXjOd-28" edge="1">
          <mxGeometry width="50" height="50" relative="1" as="geometry">
            <mxPoint x="394" y="563" as="sourcePoint" />
            <mxPoint x="393.78" y="493" as="targetPoint" />
          </mxGeometry>
        </mxCell>
        <mxCell id="DPpqllBd6HNyTSGJXjOd-24" value="res aprob6" style="rounded=1;whiteSpace=wrap;html=1;" parent="1" vertex="1">
          <mxGeometry x="357.75" y="403" width="81.5" height="20" as="geometry" />
        </mxCell>
        <mxCell id="DPpqllBd6HNyTSGJXjOd-32" style="edgeStyle=orthogonalEdgeStyle;rounded=0;orthogonalLoop=1;jettySize=auto;html=1;exitX=1;exitY=0.5;exitDx=0;exitDy=0;entryX=0;entryY=1;entryDx=0;entryDy=0;" parent="1" source="DPpqllBd6HNyTSGJXjOd-26" target="DPpqllBd6HNyTSGJXjOd-10" edge="1">
          <mxGeometry relative="1" as="geometry">
            <Array as="points">
              <mxPoint x="580" y="552" />
              <mxPoint x="580" y="237" />
              <mxPoint x="460" y="237" />
            </Array>
          </mxGeometry>
        </mxCell>
        <mxCell id="DPpqllBd6HNyTSGJXjOd-26" value="JI 08" style="shape=step;perimeter=stepPerimeter;whiteSpace=wrap;html=1;fixedSize=1;" parent="1" vertex="1">
          <mxGeometry x="439.25" y="537" width="81" height="30" as="geometry" />
        </mxCell>
        <mxCell id="DPpqllBd6HNyTSGJXjOd-56" style="edgeStyle=orthogonalEdgeStyle;rounded=0;orthogonalLoop=1;jettySize=auto;html=1;entryX=0.5;entryY=0;entryDx=0;entryDy=0;" parent="1" source="DPpqllBd6HNyTSGJXjOd-28" target="DPpqllBd6HNyTSGJXjOd-29" edge="1">
          <mxGeometry relative="1" as="geometry">
            <Array as="points">
              <mxPoint x="480" y="458" />
            </Array>
          </mxGeometry>
        </mxCell>
        <mxCell id="DPpqllBd6HNyTSGJXjOd-28" value="JZ" style="rhombus;whiteSpace=wrap;html=1;" parent="1" vertex="1">
          <mxGeometry x="357.75" y="433" width="72.25" height="50" as="geometry" />
        </mxCell>
        <mxCell id="DPpqllBd6HNyTSGJXjOd-29" value="car cont" style="rounded=1;whiteSpace=wrap;html=1;" parent="1" vertex="1">
          <mxGeometry x="439.25" y="473" width="81.5" height="20" as="geometry" />
        </mxCell>
        <mxCell id="DPpqllBd6HNyTSGJXjOd-30" value="sum uno" style="rounded=1;whiteSpace=wrap;html=1;" parent="1" vertex="1">
          <mxGeometry x="440" y="493" width="81.5" height="20" as="geometry" />
        </mxCell>
        <mxCell id="DPpqllBd6HNyTSGJXjOd-31" value="alm cont" style="rounded=1;whiteSpace=wrap;html=1;" parent="1" vertex="1">
          <mxGeometry x="439.75" y="513" width="81.5" height="20" as="geometry" />
        </mxCell>
        <mxCell id="DPpqllBd6HNyTSGJXjOd-35" style="edgeStyle=orthogonalEdgeStyle;rounded=0;orthogonalLoop=1;jettySize=auto;html=1;" parent="1" source="DPpqllBd6HNyTSGJXjOd-34" edge="1">
          <mxGeometry relative="1" as="geometry">
            <mxPoint x="580" y="553" as="targetPoint" />
          </mxGeometry>
        </mxCell>
        <mxCell id="DPpqllBd6HNyTSGJXjOd-34" value="JI 08" style="shape=step;perimeter=stepPerimeter;whiteSpace=wrap;html=1;fixedSize=1;" parent="1" vertex="1">
          <mxGeometry x="440.5" y="623" width="81" height="30" as="geometry" />
        </mxCell>
        <mxCell id="DPpqllBd6HNyTSGJXjOd-74" style="edgeStyle=orthogonalEdgeStyle;rounded=0;orthogonalLoop=1;jettySize=auto;html=1;exitX=1;exitY=0.5;exitDx=0;exitDy=0;" parent="1" source="DPpqllBd6HNyTSGJXjOd-39" edge="1">
          <mxGeometry relative="1" as="geometry">
            <mxPoint x="540" y="750" as="targetPoint" />
          </mxGeometry>
        </mxCell>
        <mxCell id="DPpqllBd6HNyTSGJXjOd-39" value="JI 21" style="shape=step;perimeter=stepPerimeter;whiteSpace=wrap;html=1;fixedSize=1;" parent="1" vertex="1">
          <mxGeometry x="420" y="810" width="71" height="30" as="geometry" />
        </mxCell>
        <mxCell id="DPpqllBd6HNyTSGJXjOd-41" value="00" style="text;html=1;strokeColor=none;fillColor=none;align=center;verticalAlign=middle;whiteSpace=wrap;rounded=0;" parent="1" vertex="1">
          <mxGeometry x="298.5" y="70" width="60" height="30" as="geometry" />
        </mxCell>
        <mxCell id="DPpqllBd6HNyTSGJXjOd-42" value="01" style="text;html=1;strokeColor=none;fillColor=none;align=center;verticalAlign=middle;whiteSpace=wrap;rounded=0;" parent="1" vertex="1">
          <mxGeometry x="299" y="92" width="60" height="30" as="geometry" />
        </mxCell>
        <mxCell id="DPpqllBd6HNyTSGJXjOd-43" value="02" style="text;html=1;strokeColor=none;fillColor=none;align=center;verticalAlign=middle;whiteSpace=wrap;rounded=0;" parent="1" vertex="1">
          <mxGeometry x="299" y="114" width="60" height="30" as="geometry" />
        </mxCell>
        <mxCell id="DPpqllBd6HNyTSGJXjOd-44" value="03" style="text;html=1;strokeColor=none;fillColor=none;align=center;verticalAlign=middle;whiteSpace=wrap;rounded=0;" parent="1" vertex="1">
          <mxGeometry x="299" y="134" width="60" height="30" as="geometry" />
        </mxCell>
        <mxCell id="DPpqllBd6HNyTSGJXjOd-45" value="04" style="text;html=1;strokeColor=none;fillColor=none;align=center;verticalAlign=middle;whiteSpace=wrap;rounded=0;" parent="1" vertex="1">
          <mxGeometry x="299" y="155" width="60" height="30" as="geometry" />
        </mxCell>
        <mxCell id="DPpqllBd6HNyTSGJXjOd-46" value="05" style="text;html=1;strokeColor=none;fillColor=none;align=center;verticalAlign=middle;whiteSpace=wrap;rounded=0;" parent="1" vertex="1">
          <mxGeometry x="299" y="175" width="60" height="30" as="geometry" />
        </mxCell>
        <mxCell id="DPpqllBd6HNyTSGJXjOd-47" value="07" style="text;html=1;strokeColor=none;fillColor=none;align=center;verticalAlign=middle;whiteSpace=wrap;rounded=0;" parent="1" vertex="1">
          <mxGeometry x="299" y="195" width="60" height="30" as="geometry" />
        </mxCell>
        <mxCell id="DPpqllBd6HNyTSGJXjOd-48" value="08" style="text;html=1;strokeColor=none;fillColor=none;align=center;verticalAlign=middle;whiteSpace=wrap;rounded=0;" parent="1" vertex="1">
          <mxGeometry x="293.5" y="241" width="60" height="30" as="geometry" />
        </mxCell>
        <mxCell id="DPpqllBd6HNyTSGJXjOd-49" value="09" style="text;html=1;strokeColor=none;fillColor=none;align=center;verticalAlign=middle;whiteSpace=wrap;rounded=0;" parent="1" vertex="1">
          <mxGeometry x="293.5" y="266" width="60" height="30" as="geometry" />
        </mxCell>
        <mxCell id="DPpqllBd6HNyTSGJXjOd-50" value="" style="endArrow=none;html=1;rounded=0;exitX=0.451;exitY=-0.052;exitDx=0;exitDy=0;exitPerimeter=0;" parent="1" source="DPpqllBd6HNyTSGJXjOd-24" target="DPpqllBd6HNyTSGJXjOd-14" edge="1">
          <mxGeometry width="50" height="50" relative="1" as="geometry">
            <mxPoint x="350" y="403" as="sourcePoint" />
            <mxPoint x="400" y="353" as="targetPoint" />
          </mxGeometry>
        </mxCell>
        <mxCell id="DPpqllBd6HNyTSGJXjOd-52" value="10" style="text;html=1;strokeColor=none;fillColor=none;align=center;verticalAlign=middle;whiteSpace=wrap;rounded=0;" parent="1" vertex="1">
          <mxGeometry x="293.5" y="301" width="60" height="30" as="geometry" />
        </mxCell>
        <mxCell id="DPpqllBd6HNyTSGJXjOd-53" value="11" style="text;html=1;strokeColor=none;fillColor=none;align=center;verticalAlign=middle;whiteSpace=wrap;rounded=0;" parent="1" vertex="1">
          <mxGeometry x="299" y="398" width="60" height="30" as="geometry" />
        </mxCell>
        <mxCell id="DPpqllBd6HNyTSGJXjOd-55" style="edgeStyle=orthogonalEdgeStyle;rounded=0;orthogonalLoop=1;jettySize=auto;html=1;exitX=1;exitY=0.5;exitDx=0;exitDy=0;entryX=0.606;entryY=0.049;entryDx=0;entryDy=0;entryPerimeter=0;" parent="1" source="DPpqllBd6HNyTSGJXjOd-20" target="DPpqllBd6HNyTSGJXjOd-34" edge="1">
          <mxGeometry relative="1" as="geometry" />
        </mxCell>
        <mxCell id="DPpqllBd6HNyTSGJXjOd-57" value="res aprob10" style="rounded=1;whiteSpace=wrap;html=1;" parent="1" vertex="1">
          <mxGeometry x="354" y="660" width="81.5" height="20" as="geometry" />
        </mxCell>
        <mxCell id="DPpqllBd6HNyTSGJXjOd-58" value="car 10" style="rounded=1;whiteSpace=wrap;html=1;" parent="1" vertex="1">
          <mxGeometry x="359" y="200" width="81.5" height="20" as="geometry" />
        </mxCell>
        <mxCell id="DPpqllBd6HNyTSGJXjOd-59" value="alm aprob10" style="rounded=1;whiteSpace=wrap;html=1;" parent="1" vertex="1">
          <mxGeometry x="358.5" y="220" width="81.5" height="20" as="geometry" />
        </mxCell>
        <mxCell id="DPpqllBd6HNyTSGJXjOd-63" value="" style="endArrow=none;html=1;rounded=0;" parent="1" source="DPpqllBd6HNyTSGJXjOd-61" edge="1">
          <mxGeometry width="50" height="50" relative="1" as="geometry">
            <mxPoint x="393.28000000000003" y="820" as="sourcePoint" />
            <mxPoint x="393.28000000000003" y="770" as="targetPoint" />
          </mxGeometry>
        </mxCell>
        <mxCell id="DPpqllBd6HNyTSGJXjOd-65" style="edgeStyle=orthogonalEdgeStyle;rounded=0;orthogonalLoop=1;jettySize=auto;html=1;" parent="1" source="DPpqllBd6HNyTSGJXjOd-64" edge="1">
          <mxGeometry relative="1" as="geometry">
            <mxPoint x="580" y="640" as="targetPoint" />
          </mxGeometry>
        </mxCell>
        <mxCell id="DPpqllBd6HNyTSGJXjOd-64" value="JI 08" style="shape=step;perimeter=stepPerimeter;whiteSpace=wrap;html=1;fixedSize=1;" parent="1" vertex="1">
          <mxGeometry x="360" y="850" width="65.25" height="30" as="geometry" />
        </mxCell>
        <mxCell id="DPpqllBd6HNyTSGJXjOd-66" value="" style="endArrow=none;html=1;rounded=0;entryX=0.5;entryY=1;entryDx=0;entryDy=0;" parent="1" target="DPpqllBd6HNyTSGJXjOd-20" edge="1">
          <mxGeometry width="50" height="50" relative="1" as="geometry">
            <mxPoint x="394" y="660" as="sourcePoint" />
            <mxPoint x="400" y="610" as="targetPoint" />
          </mxGeometry>
        </mxCell>
        <mxCell id="DPpqllBd6HNyTSGJXjOd-68" value="JZ" style="rhombus;whiteSpace=wrap;html=1;" parent="1" vertex="1">
          <mxGeometry x="357.76" y="683" width="72.25" height="50" as="geometry" />
        </mxCell>
        <mxCell id="DPpqllBd6HNyTSGJXjOd-93" style="edgeStyle=orthogonalEdgeStyle;rounded=0;orthogonalLoop=1;jettySize=auto;html=1;exitX=1;exitY=0.5;exitDx=0;exitDy=0;entryX=0.5;entryY=0;entryDx=0;entryDy=0;" parent="1" source="DPpqllBd6HNyTSGJXjOd-61" target="DPpqllBd6HNyTSGJXjOd-39" edge="1">
          <mxGeometry relative="1" as="geometry" />
        </mxCell>
        <mxCell id="DPpqllBd6HNyTSGJXjOd-61" value="JN" style="rhombus;whiteSpace=wrap;html=1;" parent="1" vertex="1">
          <mxGeometry x="357.75" y="770" width="71.75" height="50" as="geometry" />
        </mxCell>
        <mxCell id="DPpqllBd6HNyTSGJXjOd-73" style="edgeStyle=orthogonalEdgeStyle;rounded=0;orthogonalLoop=1;jettySize=auto;html=1;exitX=1;exitY=0.5;exitDx=0;exitDy=0;entryX=1;entryY=0.5;entryDx=0;entryDy=0;" parent="1" source="DPpqllBd6HNyTSGJXjOd-71" target="DPpqllBd6HNyTSGJXjOd-29" edge="1">
          <mxGeometry relative="1" as="geometry" />
        </mxCell>
        <mxCell id="DPpqllBd6HNyTSGJXjOd-71" value="JI 21" style="shape=step;perimeter=stepPerimeter;whiteSpace=wrap;html=1;fixedSize=1;" parent="1" vertex="1">
          <mxGeometry x="420" y="733" width="70" height="27" as="geometry" />
        </mxCell>
        <mxCell id="DPpqllBd6HNyTSGJXjOd-75" value="12" style="text;html=1;strokeColor=none;fillColor=none;align=center;verticalAlign=middle;whiteSpace=wrap;rounded=0;" parent="1" vertex="1">
          <mxGeometry x="299" y="443" width="60" height="30" as="geometry" />
        </mxCell>
        <mxCell id="DPpqllBd6HNyTSGJXjOd-76" value="13" style="text;html=1;strokeColor=none;fillColor=none;align=center;verticalAlign=middle;whiteSpace=wrap;rounded=0;" parent="1" vertex="1">
          <mxGeometry x="294" y="570" width="60" height="30" as="geometry" />
        </mxCell>
        <mxCell id="DPpqllBd6HNyTSGJXjOd-77" value="14" style="text;html=1;strokeColor=none;fillColor=none;align=center;verticalAlign=middle;whiteSpace=wrap;rounded=0;" parent="1" vertex="1">
          <mxGeometry x="293.5" y="655" width="60" height="30" as="geometry" />
        </mxCell>
        <mxCell id="DPpqllBd6HNyTSGJXjOd-78" value="15" style="text;html=1;strokeColor=none;fillColor=none;align=center;verticalAlign=middle;whiteSpace=wrap;rounded=0;" parent="1" vertex="1">
          <mxGeometry x="293.5" y="693" width="60" height="30" as="geometry" />
        </mxCell>
        <mxCell id="DPpqllBd6HNyTSGJXjOd-79" value="" style="endArrow=none;html=1;rounded=0;entryX=0.5;entryY=1;entryDx=0;entryDy=0;" parent="1" source="DPpqllBd6HNyTSGJXjOd-95" target="DPpqllBd6HNyTSGJXjOd-68" edge="1">
          <mxGeometry width="50" height="50" relative="1" as="geometry">
            <mxPoint x="350" y="780" as="sourcePoint" />
            <mxPoint x="400" y="730" as="targetPoint" />
          </mxGeometry>
        </mxCell>
        <mxCell id="DPpqllBd6HNyTSGJXjOd-80" value="16" style="text;html=1;strokeColor=none;fillColor=none;align=center;verticalAlign=middle;whiteSpace=wrap;rounded=0;" parent="1" vertex="1">
          <mxGeometry x="297.75" y="780" width="60" height="30" as="geometry" />
        </mxCell>
        <mxCell id="DPpqllBd6HNyTSGJXjOd-82" value="" style="endArrow=none;html=1;rounded=0;" parent="1" edge="1">
          <mxGeometry width="50" height="50" relative="1" as="geometry">
            <mxPoint x="393" y="850" as="sourcePoint" />
            <mxPoint x="393" y="821" as="targetPoint" />
          </mxGeometry>
        </mxCell>
        <mxCell id="DPpqllBd6HNyTSGJXjOd-84" value="17" style="text;html=1;strokeColor=none;fillColor=none;align=center;verticalAlign=middle;whiteSpace=wrap;rounded=0;" parent="1" vertex="1">
          <mxGeometry x="299" y="850" width="60" height="30" as="geometry" />
        </mxCell>
        <mxCell id="DPpqllBd6HNyTSGJXjOd-85" style="edgeStyle=orthogonalEdgeStyle;rounded=0;orthogonalLoop=1;jettySize=auto;html=1;exitX=1;exitY=0.5;exitDx=0;exitDy=0;entryX=0.408;entryY=-0.028;entryDx=0;entryDy=0;entryPerimeter=0;" parent="1" source="DPpqllBd6HNyTSGJXjOd-68" target="DPpqllBd6HNyTSGJXjOd-71" edge="1">
          <mxGeometry relative="1" as="geometry" />
        </mxCell>
        <mxCell id="DPpqllBd6HNyTSGJXjOd-86" value="18" style="text;html=1;strokeColor=none;fillColor=none;align=center;verticalAlign=middle;whiteSpace=wrap;rounded=0;" parent="1" vertex="1">
          <mxGeometry x="406.38" y="348" width="60" height="30" as="geometry" />
        </mxCell>
        <mxCell id="DPpqllBd6HNyTSGJXjOd-87" value="19" style="text;html=1;strokeColor=none;fillColor=none;align=center;verticalAlign=middle;whiteSpace=wrap;rounded=0;" parent="1" vertex="1">
          <mxGeometry x="406.38" y="376" width="60" height="30" as="geometry" />
        </mxCell>
        <mxCell id="DPpqllBd6HNyTSGJXjOd-88" value="20" style="text;html=1;strokeColor=none;fillColor=none;align=center;verticalAlign=middle;whiteSpace=wrap;rounded=0;" parent="1" vertex="1">
          <mxGeometry x="425.25" y="408" width="60" height="30" as="geometry" />
        </mxCell>
        <mxCell id="DPpqllBd6HNyTSGJXjOd-89" value="21" style="text;html=1;strokeColor=none;fillColor=none;align=center;verticalAlign=middle;whiteSpace=wrap;rounded=0;" parent="1" vertex="1">
          <mxGeometry x="400" y="468" width="60" height="30" as="geometry" />
        </mxCell>
        <mxCell id="DPpqllBd6HNyTSGJXjOd-90" value="22" style="text;html=1;strokeColor=none;fillColor=none;align=center;verticalAlign=middle;whiteSpace=wrap;rounded=0;" parent="1" vertex="1">
          <mxGeometry x="399.75" y="488" width="60" height="30" as="geometry" />
        </mxCell>
        <mxCell id="DPpqllBd6HNyTSGJXjOd-91" value="23" style="text;html=1;strokeColor=none;fillColor=none;align=center;verticalAlign=middle;whiteSpace=wrap;rounded=0;" parent="1" vertex="1">
          <mxGeometry x="399.75" y="508" width="60" height="30" as="geometry" />
        </mxCell>
        <mxCell id="DPpqllBd6HNyTSGJXjOd-92" value="24" style="text;html=1;strokeColor=none;fillColor=none;align=center;verticalAlign=middle;whiteSpace=wrap;rounded=0;" parent="1" vertex="1">
          <mxGeometry x="400" y="537" width="60" height="30" as="geometry" />
        </mxCell>
        <mxCell id="DPpqllBd6HNyTSGJXjOd-94" value="25" style="text;html=1;strokeColor=none;fillColor=none;align=center;verticalAlign=middle;whiteSpace=wrap;rounded=0;" parent="1" vertex="1">
          <mxGeometry x="398.5" y="623" width="60" height="30" as="geometry" />
        </mxCell>
        <mxCell id="DPpqllBd6HNyTSGJXjOd-96" value="" style="endArrow=none;html=1;rounded=0;entryX=0.5;entryY=1;entryDx=0;entryDy=0;" parent="1" source="DPpqllBd6HNyTSGJXjOd-61" target="DPpqllBd6HNyTSGJXjOd-68" edge="1">
          <mxGeometry width="50" height="50" relative="1" as="geometry">
            <mxPoint x="394" y="770" as="sourcePoint" />
            <mxPoint x="394" y="733" as="targetPoint" />
          </mxGeometry>
        </mxCell>
        <mxCell id="DPpqllBd6HNyTSGJXjOd-95" value="26" style="text;html=1;strokeColor=none;fillColor=none;align=center;verticalAlign=middle;whiteSpace=wrap;rounded=0;" parent="1" vertex="1">
          <mxGeometry x="384" y="730" width="60" height="30" as="geometry" />
        </mxCell>
        <mxCell id="DPpqllBd6HNyTSGJXjOd-97" value="27" style="text;html=1;strokeColor=none;fillColor=none;align=center;verticalAlign=middle;whiteSpace=wrap;rounded=0;" parent="1" vertex="1">
          <mxGeometry x="384" y="810" width="60" height="30" as="geometry" />
        </mxCell>
      </root>
    </mxGraphModel>
  </diagram>
</mxfile>
